<svg width="23" height="19" viewBox="0 0 23 19" fill="none" xmlns="http://www.w3.org/2000/svg">
<path fill-rule="evenodd" clip-rule="evenodd" d="M18.2676 2.6282H4.13713C3.0966 2.6282 2.25308 3.47172 2.25308 4.51225V12.441L6.96322 7.33834L13.5574 14.4036L15.9125 11.5775L19.654 16.1504C19.9629 15.8148 20.1516 15.3667 20.1516 14.8746V4.51226C20.1516 3.47172 19.3081 2.6282 18.2676 2.6282ZM4.13713 0.744141C2.05606 0.744141 0.369019 2.43118 0.369019 4.51225V14.8746C0.369019 16.9556 2.05606 18.6427 4.13713 18.6427H18.2676C20.3486 18.6427 22.0357 16.9556 22.0357 14.8746V4.51226C22.0357 2.43118 20.3486 0.744141 18.2676 0.744141H4.13713ZM15.9125 10.1644C17.2132 10.1644 18.2676 9.11003 18.2676 7.80936C18.2676 6.50869 17.2132 5.45429 15.9125 5.45429C14.6118 5.45429 13.5574 6.50869 13.5574 7.80936C13.5574 9.11003 14.6118 10.1644 15.9125 10.1644Z" fill="#4C4C4C"/>
</svg>
