<svg width="21" height="23" viewBox="0 0 21 23" fill="none" xmlns="http://www.w3.org/2000/svg">
<path d="M19.7702 10.7664C19.2642 10.7664 18.8535 10.3557 18.8535 9.84974C18.8535 7.27849 17.8525 4.86216 16.0347 3.04349C15.6763 2.68508 15.6763 2.10574 16.0347 1.74733C16.3932 1.38891 16.9725 1.38891 17.3309 1.74733C19.4952 3.91158 20.6868 6.78899 20.6868 9.84974C20.6868 10.3557 20.2762 10.7664 19.7702 10.7664Z" fill="#21C3E7"/>
<path d="M1.43742 10.7659C0.931419 10.7659 0.520752 10.3553 0.520752 9.84926C0.520752 6.78851 1.71242 3.91109 3.87667 1.74684C4.23509 1.38842 4.81442 1.38842 5.17284 1.74684C5.53125 2.10526 5.53125 2.68459 5.17284 3.04301C3.35509 4.86076 2.35409 7.27801 2.35409 9.84926C2.35409 10.3553 1.94342 10.7659 1.43742 10.7659Z" fill="#21C3E7"/>
<path d="M19.2013 16.2946C17.8153 15.1231 17.0205 13.4108 17.0205 11.5967V9.04102C17.0205 5.81527 14.6244 3.14502 11.5205 2.69768V1.70768C11.5205 1.20077 11.1099 0.791016 10.6039 0.791016C10.0979 0.791016 9.68719 1.20077 9.68719 1.70768V2.69768C6.58244 3.14502 4.18719 5.81527 4.18719 9.04102V11.5967C4.18719 13.4108 3.39244 15.1231 1.99819 16.3019C1.64161 16.6072 1.43719 17.0508 1.43719 17.5202C1.43719 18.4048 2.15678 19.1243 3.04136 19.1243H18.1664C19.0509 19.1243 19.7705 18.4048 19.7705 17.5202C19.7705 17.0508 19.5661 16.6072 19.2013 16.2946Z" fill="#21C3E7"/>
<path d="M10.6037 22.791C12.2638 22.791 13.6526 21.6076 13.9716 20.041H7.2359C7.5549 21.6076 8.94365 22.791 10.6037 22.791Z" fill="#21C3E7"/>
</svg>
