<svg width="20" height="21" viewBox="0 0 20 21" fill="none" xmlns="http://www.w3.org/2000/svg">
<rect width="20" height="20" rx="10" transform="matrix(-1 -8.74228e-08 -8.74228e-08 1 20 0.979492)" fill="#FFC107"/>
<path d="M5.4065 4.33124L4.7025 5.03424L5.75 6.08124L6.453 5.37824L5.406 4.33124H5.4065ZM14.594 4.33124L13.5465 5.37824L14.25 6.08124L15.297 5.03474L14.594 4.33124ZM10 4.64324C9.835 4.64524 9.668 4.65474 9.5 4.67524C9.495 4.67524 9.49 4.67424 9.485 4.67524C7.457 4.90774 5.843 6.54624 5.5625 8.56524C5.3385 10.1902 6.0085 11.6637 7.125 12.6127C7.5817 13.0025 7.89062 13.5374 8 14.1277V17.1277H9.14C9.314 17.4262 9.6315 17.6277 10 17.6277C10.3685 17.6277 10.686 17.4262 10.86 17.1277H12V15.1277H12.047V14.5337C12.047 13.8007 12.428 13.0617 13.047 12.4872C13.875 11.6582 14.5 10.4807 14.5 9.12824C14.5 6.65824 12.467 4.62024 10 4.64324ZM10 5.64324C11.9325 5.61624 13.5 7.19824 13.5 9.12824C13.5 10.1752 13.015 11.0972 12.3435 11.7682L12.3595 11.7842C11.6922 12.3996 11.2607 13.2286 11.1395 14.1282H8.9525C8.8425 13.2712 8.475 12.4417 7.7805 11.8467C6.897 11.0967 6.3705 9.96674 6.5465 8.69074C6.765 7.11574 8.043 5.84924 9.609 5.67574C9.73829 5.65771 9.8685 5.64703 9.999 5.64374L10 5.64324ZM3 9.12824V10.1282H4.5V9.12824H3ZM15.5 9.12824V10.1282H17V9.12824H15.5ZM5.75 13.1752L4.703 14.2217L5.4065 14.9252L6.4525 13.8782L5.75 13.1752ZM14.25 13.1752L13.547 13.8782L14.5935 14.9252L15.297 14.2217L14.25 13.1752ZM9 15.1282H11V16.1282H9V15.1282Z" fill="white"/>
</svg>
