<svg width="11" height="11" viewBox="0 0 11 11" fill="none" xmlns="http://www.w3.org/2000/svg">
<path d="M6.44656 9.75088C6.36512 9.77117 6.2821 9.78919 6.19969 9.80437C5.98426 9.84443 5.84184 10.0516 5.88168 10.2672C5.90136 10.3733 5.96161 10.4617 6.0434 10.5194C6.1277 10.5787 6.23499 10.6055 6.34432 10.5851C6.44246 10.5669 6.54136 10.5455 6.63842 10.5213C6.85115 10.4683 6.98075 10.2528 6.92768 10.0402C6.87474 9.82738 6.65942 9.69789 6.44656 9.75088Z" fill="#6E6E6E"/>
<path d="M9.38359 4.4297C9.4114 4.51351 9.46449 4.58193 9.53155 4.62921C9.63099 4.69924 9.7611 4.72281 9.88526 4.68175C10.0934 4.61263 10.2062 4.38816 10.1374 4.1801C10.106 4.08525 10.0712 3.9901 10.0341 3.89746C9.95264 3.69388 9.72172 3.59476 9.51803 3.67619C9.31455 3.75758 9.21539 3.98857 9.29689 4.19222C9.32805 4.27009 9.35724 4.35001 9.38359 4.4297Z" fill="#6E6E6E"/>
<path d="M7.73688 9.18377C7.66684 9.23 7.59456 9.27475 7.52175 9.31668C7.33177 9.42626 7.26671 9.66909 7.37625 9.85898C7.40599 9.91063 7.4456 9.95286 7.49122 9.98512C7.61369 10.0713 7.78001 10.0842 7.91849 10.0044C8.00506 9.95449 8.09114 9.90138 8.17455 9.84623C8.35741 9.72541 8.40775 9.4791 8.28687 9.29615C8.16602 9.11314 7.9198 9.06287 7.73688 9.18377Z" fill="#6E6E6E"/>
<path d="M10.3834 5.53792C10.3747 5.3188 10.1901 5.14825 9.97096 5.1568C9.75205 5.16544 9.58137 5.35007 9.58997 5.56911C9.59326 5.65285 9.59411 5.73785 9.59218 5.82151C9.5891 5.95893 9.65631 6.08142 9.76076 6.15504C9.82298 6.19885 9.89849 6.22537 9.98037 6.22724C10.1995 6.2321 10.3811 6.0583 10.3859 5.83907C10.3881 5.7391 10.3873 5.63782 10.3834 5.53792Z" fill="#6E6E6E"/>
<path d="M9.31795 8.13937C9.14224 8.00754 8.89365 8.04333 8.76205 8.21872C8.71166 8.28589 8.65859 8.35223 8.60424 8.41611C8.46222 8.58296 8.48228 8.83359 8.64914 8.97571C8.65865 8.98378 8.66827 8.99119 8.67824 8.99815C8.84412 9.1151 9.07467 9.08823 9.20879 8.93084C9.27369 8.85463 9.33695 8.77538 9.39717 8.69516C9.52879 8.51977 9.49317 8.27101 9.31795 8.13937Z" fill="#6E6E6E"/>
<path d="M9.90144 6.70457C9.69223 6.63897 9.46943 6.75543 9.40388 6.96464C9.37879 7.04456 9.35098 7.12487 9.32096 7.20352C9.25504 7.37666 9.3182 7.56717 9.46298 7.66926C9.48954 7.68792 9.51879 7.70373 9.55057 7.71575C9.7554 7.79391 9.98478 7.69115 10.0629 7.48623C10.0985 7.39271 10.1316 7.29716 10.1615 7.20214C10.227 6.99289 10.1106 6.77016 9.90144 6.70457Z" fill="#6E6E6E"/>
<path d="M4.71478 9.8081C4.35983 9.74437 4.01935 9.63585 3.69648 9.48449C3.69266 9.4825 3.68924 9.48023 3.68523 9.4784C3.60915 9.44259 3.53319 9.40423 3.45957 9.36415C3.45932 9.36385 3.45885 9.36366 3.45844 9.36349C3.32337 9.2891 3.19154 9.2068 3.06346 9.11664C1.19594 7.8011 0.746911 5.21146 2.06253 3.34396C2.34861 2.93802 2.69481 2.59936 3.08077 2.33095C3.08552 2.32764 3.09028 2.32435 3.09499 2.32101C4.45504 1.3839 6.30179 1.32074 7.74595 2.28371L7.43578 2.73187C7.34955 2.85661 7.4026 2.94751 7.55356 2.93393L8.90088 2.81331C9.05202 2.79972 9.14241 2.66897 9.10176 2.523L8.73996 1.21944C8.69946 1.0733 8.59576 1.05581 8.50944 1.18053L8.19855 1.62975C7.13873 0.91831 5.86758 0.647029 4.6059 0.865811C4.47882 0.887804 4.35353 0.914722 4.22996 0.946056C4.229 0.946225 4.22824 0.946332 4.22747 0.946501C4.2227 0.947669 4.21786 0.949219 4.21321 0.950514C3.12524 1.2299 2.176 1.86445 1.49866 2.76981C1.49295 2.77658 1.48707 2.7832 1.48168 2.79057C1.45915 2.82091 1.4368 2.85194 1.41491 2.88298C1.37912 2.93384 1.34384 2.98598 1.31009 3.03812C1.30586 3.0444 1.30263 3.05079 1.29894 3.05714C0.73999 3.92329 0.470386 4.92464 0.516622 5.94409C0.516729 5.94744 0.516538 5.95081 0.516622 5.95425C0.521102 6.05384 0.528999 6.1548 0.539719 6.25419C0.540292 6.2606 0.541715 6.26668 0.542797 6.27309C0.553879 6.37303 0.567783 6.47321 0.585212 6.57337C0.762344 7.59527 1.2444 8.51483 1.96675 9.23034C1.96843 9.23202 1.97017 9.23385 1.97187 9.23559C1.97246 9.23624 1.97312 9.23658 1.97369 9.2372C2.16776 9.42862 2.37886 9.60567 2.60616 9.76575C3.20098 10.1849 3.86334 10.4619 4.57467 10.5896C4.7905 10.6284 4.99667 10.4847 5.03539 10.269C5.07409 10.0531 4.93054 9.84676 4.71478 9.8081Z" fill="#6E6E6E"/>
<path d="M5.20592 2.52222C5.02839 2.52222 4.88458 2.66615 4.88458 2.84343V6.04358L7.81138 7.55657C7.85848 7.58096 7.90892 7.59244 7.95855 7.59244C8.0748 7.59244 8.18708 7.52914 8.24416 7.41869C8.32558 7.26104 8.26397 7.06738 8.10633 6.98596L5.5269 5.65242V2.84343C5.52688 2.66615 5.38324 2.52222 5.20592 2.52222Z" fill="#6E6E6E"/>
</svg>
