<svg width="23" height="23" viewBox="0 0 23 23" fill="none" xmlns="http://www.w3.org/2000/svg">
<rect x="0.5" y="0.779297" width="22" height="22" rx="2" fill="#21C3E7"/>
<path d="M11.313 17.2776C13.5396 17.2776 15.3445 15.5009 15.3445 13.3091C15.3445 11.1173 13.5396 9.34056 11.313 9.34056C9.08648 9.34056 7.28151 11.1173 7.28151 13.3091C7.28151 15.5009 9.08648 17.2776 11.313 17.2776ZM11.313 17.2776H3.25M7.81897 11.3197C6.7057 13.2179 7.36636 15.645 9.2946 16.7409C11.2228 17.8367 13.6885 17.1864 14.8017 15.2883C15.915 13.3902 15.2544 10.963 13.3261 9.86716C11.3979 8.77128 8.93224 9.42162 7.81897 11.3197ZM7.81897 11.3197L11.8505 4.44604M14.8018 11.3223C13.6886 9.42423 11.2229 8.77388 9.29468 9.86976C7.36643 10.9656 6.70577 13.3928 7.81904 15.2909C8.93231 17.189 11.3979 17.8393 13.3262 16.7435C15.2544 15.6476 15.9151 13.2205 14.8018 11.3223ZM14.8018 11.3223L18.8333 18.196" stroke="white" stroke-width="2.25" stroke-linecap="round"/>
</svg>
