<svg width="17" height="11" viewBox="0 0 17 11" fill="none" xmlns="http://www.w3.org/2000/svg">
<path d="M8.20571 7.99492C9.58044 7.99492 10.6949 6.88049 10.6949 5.50576C10.6949 4.13104 9.58044 3.0166 8.20571 3.0166C6.83099 3.0166 5.71655 4.13104 5.71655 5.50576C5.71655 6.88049 6.83099 7.99492 8.20571 7.99492Z" fill="black" fill-opacity="0.2"/>
<path d="M16.3088 5.28557L14.0203 2.95529C12.4975 1.40765 10.4231 0.527088 8.25195 0.506709C6.08082 0.486331 3.99023 1.3278 2.43862 2.84658L0.122278 5.13505C0.0439796 5.21344 0 5.31971 0 5.43051C0 5.54131 0.0439796 5.64758 0.122278 5.72598L2.41075 8.05626C3.93321 9.60458 6.00777 10.4856 8.17912 10.506C10.3505 10.5264 12.4412 9.68443 13.9925 8.16497L16.3227 5.8765C16.3992 5.79627 16.4407 5.68896 16.4381 5.57815C16.4355 5.46734 16.389 5.3621 16.3088 5.28557ZM8.17512 8.83116C7.51696 8.82727 6.87477 8.62816 6.32984 8.25905C5.78492 7.88995 5.36179 7.36743 5.11402 6.75769C4.86625 6.14794 4.80499 5.47838 4.938 4.83379C5.07101 4.18921 5.39231 3.59859 5.8612 3.13673C6.3301 2.67486 6.92551 2.36253 7.57203 2.23928C8.21855 2.11602 8.88711 2.18739 9.49304 2.44435C10.099 2.7013 10.615 3.13229 10.9759 3.68272C11.3367 4.23316 11.5261 4.8783 11.52 5.53644C11.5112 6.41622 11.1543 7.25671 10.5275 7.87412C9.90072 8.49153 9.05493 8.83562 8.17512 8.83116Z" fill="black" fill-opacity="0.2"/>
</svg>
