<svg width="10" height="11" viewBox="0 0 10 11" fill="none" xmlns="http://www.w3.org/2000/svg">
<g clip-path="url(#clip0_164_10006)">
<path d="M8.9292 6.86906C8.64166 7.68132 8.10945 8.3845 7.40581 8.88183C6.70217 9.37915 5.86168 9.64617 5.00003 9.64614C3.18628 9.64614 1.64295 8.48697 1.07086 6.86906C2.25194 7.59715 3.61256 7.98167 5.00003 7.97947C6.44086 7.97947 7.7867 7.57322 8.9292 6.86906ZM8.80253 3.77322C9.07246 4.37403 9.19558 5.03044 9.1617 5.68822C7.98111 6.63417 6.51284 7.14854 5.00003 7.14614C3.42586 7.14614 1.9792 6.60031 0.838363 5.68781C0.80455 5.03016 0.927661 4.3739 1.19753 3.77322C2.28772 4.61142 3.62486 5.0649 5.00003 5.06281C6.43086 5.06281 7.7492 4.58197 8.80253 3.77322ZM5.00003 1.31281C5.66067 1.31238 6.31193 1.46921 6.89995 1.77032C7.48798 2.07143 7.99589 2.50819 8.3817 3.04447C7.42245 3.8133 6.22936 4.23138 5.00003 4.22947C3.72086 4.22947 2.54503 3.78614 1.61836 3.04447C2.00409 2.50811 2.51199 2.0713 3.10003 1.77018C3.68808 1.46906 4.33937 1.31228 5.00003 1.31281Z" fill="#6E6E6E"/>
</g>
<defs>
<clipPath id="clip0_164_10006">
<rect width="10" height="10" fill="white" transform="translate(0 0.479492)"/>
</clipPath>
</defs>
</svg>
