<svg width="20" height="21" viewBox="0 0 20 21" fill="none" xmlns="http://www.w3.org/2000/svg">
<rect width="20" height="20" rx="10" transform="matrix(-1 -8.74228e-08 -8.74228e-08 1 20 0.979492)" fill="#FD5B71"/>
<path d="M10.065 15.1484L10 15.2138L9.9285 15.1484C6.841 12.3299 4.8 10.4661 4.8 8.57622C4.8 7.26832 5.775 6.28739 7.075 6.28739C8.076 6.28739 9.051 6.94135 9.3955 7.83072H10.6045C10.949 6.94135 11.924 6.28739 12.925 6.28739C14.225 6.28739 15.2 7.26832 15.2 8.57622C15.2 10.4661 13.159 12.3299 10.065 15.1484ZM12.925 4.97949C11.794 4.97949 10.7085 5.50919 10 6.33971C9.2915 5.50919 8.206 4.97949 7.075 4.97949C5.073 4.97949 3.5 6.55551 3.5 8.57622C3.5 11.0416 5.71 13.0623 9.0575 16.1163L10 16.9795L10.9425 16.1163C14.29 13.0623 16.5 11.0416 16.5 8.57622C16.5 6.55551 14.927 4.97949 12.925 4.97949Z" fill="white"/>
</svg>
