<svg width="25" height="25" viewBox="0 0 25 25" fill="none" xmlns="http://www.w3.org/2000/svg">
<path d="M4.16669 12.9795C4.16669 13.2447 4.27204 13.4991 4.45958 13.6866C4.64712 13.8741 4.90147 13.9795 5.16669 13.9795C5.4319 13.9795 5.68626 13.8741 5.87379 13.6866C6.06133 13.4991 6.16669 13.2447 6.16669 12.9795C6.16669 12.7143 6.06133 12.4599 5.87379 12.2724C5.68626 12.0848 5.4319 11.9795 5.16669 11.9795C4.90147 11.9795 4.64712 12.0848 4.45958 12.2724C4.27204 12.4599 4.16669 12.7143 4.16669 12.9795ZM11.1667 12.9795C11.1667 13.2447 11.272 13.4991 11.4596 13.6866C11.6471 13.8741 11.9015 13.9795 12.1667 13.9795C12.4319 13.9795 12.6863 13.8741 12.8738 13.6866C13.0613 13.4991 13.1667 13.2447 13.1667 12.9795C13.1667 12.7143 13.0613 12.4599 12.8738 12.2724C12.6863 12.0848 12.4319 11.9795 12.1667 11.9795C11.9015 11.9795 11.6471 12.0848 11.4596 12.2724C11.272 12.4599 11.1667 12.7143 11.1667 12.9795ZM18.1667 12.9795C18.1667 13.2447 18.272 13.4991 18.4596 13.6866C18.6471 13.8741 18.9015 13.9795 19.1667 13.9795C19.4319 13.9795 19.6863 13.8741 19.8738 13.6866C20.0613 13.4991 20.1667 13.2447 20.1667 12.9795C20.1667 12.7143 20.0613 12.4599 19.8738 12.2724C19.6863 12.0848 19.4319 11.9795 19.1667 11.9795C18.9015 11.9795 18.6471 12.0848 18.4596 12.2724C18.272 12.4599 18.1667 12.7143 18.1667 12.9795Z" stroke="#4E4E4E" stroke-width="2" stroke-linecap="round" stroke-linejoin="round"/>
</svg>
