<svg width="24" height="21" viewBox="0 0 24 21" fill="none" xmlns="http://www.w3.org/2000/svg">
<path d="M16.702 20.9795H1.89609C0.612947 20.9795 -0.300879 19.7295 0.0921136 18.5079L1.64988 13.6405C2.15177 12.0827 3.86105 11.2683 5.38567 11.8602C6.39893 12.2532 7.70102 12.5609 9.29192 12.5609C10.8828 12.5609 12.1897 12.2532 13.1982 11.8602C14.7275 11.2683 16.4368 12.078 16.934 13.6405L18.4917 18.5079C18.8989 19.7295 17.9851 20.9795 16.702 20.9795Z" fill="#4C4C4C"/>
<path d="M9.30138 10.7428C11.9974 10.7428 14.183 8.55717 14.183 5.86112C14.183 3.16507 11.9974 0.979492 9.30138 0.979492C6.60533 0.979492 4.41975 3.16507 4.41975 5.86112C4.41975 8.55717 6.60533 10.7428 9.30138 10.7428Z" fill="#4C4C4C"/>
<path d="M22.2465 6.72759H20.6934V5.17456C20.6934 4.45959 20.1158 3.88194 19.4008 3.88194C18.6859 3.88194 18.1082 4.45959 18.1082 5.17456V6.72759H16.5552C15.8402 6.72759 15.2626 7.30524 15.2626 8.0202C15.2626 8.73516 15.8402 9.31281 16.5552 9.31281H18.1082V10.8658C18.1082 11.5808 18.6859 12.1585 19.4008 12.1585C20.1158 12.1585 20.6934 11.5808 20.6934 10.8658V9.31281H22.2465C22.9614 9.31281 23.5391 8.73516 23.5391 8.0202C23.5438 7.30524 22.9614 6.72759 22.2465 6.72759Z" fill="#4C4C4C"/>
</svg>
