<svg width="15" height="13" viewBox="0 0 15 13" fill="none" xmlns="http://www.w3.org/2000/svg">
<path d="M10.0212 12.5333H1.13765C0.367768 12.5333 -0.180527 11.7833 0.0552682 11.0504L0.989927 8.12993C1.29106 7.19527 2.31663 6.70663 3.2314 7.06175C3.83936 7.29754 4.62061 7.4822 5.57516 7.4822C6.5297 7.4822 7.31379 7.29754 7.91891 7.06175C8.83652 6.70663 9.86209 7.19243 10.1604 8.12993L11.095 11.0504C11.3394 11.7833 10.7911 12.5333 10.0212 12.5333Z" fill="#21C3E7"/>
<path d="M5.58096 6.39116C7.19858 6.39116 8.50993 5.07981 8.50993 3.46218C8.50993 1.84455 7.19858 0.533203 5.58096 0.533203C3.96333 0.533203 2.65198 1.84455 2.65198 3.46218C2.65198 5.07981 3.96333 6.39116 5.58096 6.39116Z" fill="#21C3E7"/>
<path d="M13.3479 3.9818H12.4161V3.04998C12.4161 2.621 12.0695 2.27441 11.6405 2.27441C11.2116 2.27441 10.865 2.621 10.865 3.04998V3.9818H9.93316C9.50418 3.9818 9.15759 4.32839 9.15759 4.75737C9.15759 5.18635 9.50418 5.53294 9.93316 5.53294H10.865V6.46476C10.865 6.89373 11.2116 7.24032 11.6405 7.24032C12.0695 7.24032 12.4161 6.89373 12.4161 6.46476V5.53294H13.3479C13.7769 5.53294 14.1235 5.18635 14.1235 4.75737C14.1263 4.32839 13.7769 3.9818 13.3479 3.9818Z" fill="#21C3E7"/>
</svg>
