<svg width="25" height="25" viewBox="0 0 25 25" fill="none" xmlns="http://www.w3.org/2000/svg">
<mask id="path-1-inside-1_164_10033" fill="white">
<path d="M18.2363 13.6513L18.2363 18.3033L16.1632 18.3033L16.0585 18.315C14.1338 18.7414 12.8585 19.0489 12.2229 19.2393C11.3786 19.4922 11.0639 19.5539 10.4912 19.5903C10.0629 19.6183 9.57645 19.4616 9.35478 19.2471C9.2323 19.1288 9.14062 18.8857 9.10436 18.5087C9.09685 18.4297 9.0671 18.354 9.01823 18.2896C8.96936 18.2252 8.90316 18.1745 8.82658 18.1428C8.65622 18.0726 8.51459 17.9582 8.39622 17.7918C8.28675 17.6397 8.2156 17.3563 8.2026 16.9461C8.20031 16.8707 8.17781 16.7971 8.13722 16.7323C8.09664 16.6674 8.0393 16.6135 7.97066 16.5756C7.57246 16.3566 7.37541 16.1096 7.33436 15.8197C7.2892 15.4992 7.39867 15.1385 7.68535 14.7277C7.75261 14.6313 7.77766 14.5138 7.75517 14.4002C7.73269 14.2866 7.66443 14.1858 7.56493 14.1193C7.29057 13.936 7.14005 13.6812 7.10242 13.3198C7.04221 12.7439 7.42878 12.3181 8.30386 12.233C9.08324 12.1597 9.87015 12.2221 10.626 12.4169C10.7117 12.4382 10.8021 12.4358 10.8864 12.4099C10.9708 12.3841 11.0456 12.3359 11.1021 12.271C11.1586 12.2062 11.1944 12.1273 11.2053 12.0438C11.2163 11.9602 11.2018 11.8754 11.1638 11.7994C10.8217 11.1117 10.6315 10.5443 10.587 10.1049C10.5288 9.52181 10.6705 9.09931 11.0016 8.75091C11.2527 8.487 11.6543 8.3362 11.8049 8.3674C12.0033 8.4077 12.1326 8.5169 12.3009 8.89911C12.4001 9.12531 12.448 9.31771 12.5301 9.76686C12.6088 10.1933 12.6519 10.3857 12.7415 10.6379C13.0118 11.4023 13.6748 12.1946 14.5649 12.7413C15.1887 13.1239 15.8649 13.4235 16.5744 13.6318C16.6187 13.6447 16.6648 13.6513 16.7112 13.6513L18.2363 13.6513ZM18.265 19.1893C18.486 19.1951 18.6844 19.1483 18.8507 19.0378C19.0628 18.8968 19.1627 18.6745 19.1647 18.4184L19.1627 13.6584C19.1859 13.4049 19.1072 13.1722 18.9211 12.9993C18.7467 12.8368 18.5188 12.7601 18.278 12.7653L16.783 12.7653C16.1783 12.5823 15.6018 12.3239 15.0685 11.997C14.3514 11.5563 13.8232 10.9245 13.6214 10.3551C13.5523 10.1588 13.5153 9.99631 13.4456 9.61411C13.3511 9.10126 13.2923 8.86271 13.1568 8.55591C12.8763 7.9176 12.5082 7.6056 12.0005 7.50095C11.5011 7.39825 10.7738 7.6719 10.314 8.1555C9.80429 8.6911 9.57919 9.36126 9.66266 10.1894C9.69824 10.5456 9.80224 10.944 9.97328 11.388C9.38914 11.3071 8.79673 11.2949 8.20944 11.3516C6.83627 11.4848 6.06519 12.3344 6.17739 13.4082C6.22665 13.871 6.40318 14.2642 6.70354 14.573C6.45107 15.0351 6.35049 15.4921 6.41344 15.938C6.48596 16.4515 6.78701 16.8792 7.28783 17.2113C7.32683 17.6618 7.43562 18.0212 7.62856 18.2903C7.78059 18.5077 7.97894 18.6924 8.21081 18.8324C8.2847 19.277 8.44001 19.6248 8.69385 19.8692C9.11462 20.2761 9.86655 20.5185 10.5535 20.4743C11.2055 20.4327 11.5914 20.3573 12.5014 20.0843C13.1014 19.9043 14.3439 19.6053 16.2165 19.1893L18.265 19.1893ZM17.1012 13.4491C17.1014 13.391 17.0895 13.3333 17.0662 13.2796C17.0429 13.2258 17.0086 13.1769 16.9654 13.1357C16.9222 13.0945 16.8708 13.0619 16.8143 13.0396C16.7578 13.0173 16.6971 13.0058 16.6359 13.0058C16.5748 13.006 16.5144 13.0176 16.458 13.04C16.4016 13.0623 16.3504 13.095 16.3074 13.1362C16.2643 13.1774 16.2302 13.2262 16.2069 13.2799C16.1837 13.3336 16.1719 13.3911 16.1721 13.4491L16.1721 18.4398C16.172 18.4979 16.1839 18.5554 16.2072 18.609C16.2305 18.6627 16.2647 18.7114 16.3078 18.7526C16.351 18.7937 16.4022 18.8263 16.4586 18.8486C16.515 18.8709 16.5755 18.8824 16.6366 18.8825C16.6977 18.8824 16.7582 18.8709 16.8146 18.8486C16.871 18.8263 16.9223 18.7937 16.9654 18.7526C17.0085 18.7114 17.0427 18.6627 17.066 18.609C17.0893 18.5554 17.1013 18.4979 17.1012 18.4398L17.1012 13.4491Z"/>
</mask>
<path d="M18.2363 13.6513L18.2363 12.6513L19.2363 12.6513L19.2363 13.6513L18.2363 13.6513ZM18.2363 18.3033L19.2363 18.3033L19.2363 19.3033L18.2363 19.3033L18.2363 18.3033ZM16.1632 18.3033L16.0521 17.3095L16.1074 17.3033L16.1632 17.3033L16.1632 18.3033ZM16.0585 18.315L15.8422 17.3387L15.8943 17.3271L15.9474 17.3212L16.0585 18.315ZM12.2229 19.2393L12.5099 20.1972L12.5098 20.1973L12.2229 19.2393ZM10.4912 19.5903L10.4261 18.5924L10.4278 18.5923L10.4912 19.5903ZM9.35478 19.2471L10.0495 18.5279L10.0502 18.5285L9.35478 19.2471ZM9.10436 18.5087L8.10895 18.6045L8.10884 18.6033L9.10436 18.5087ZM8.82658 18.1428L9.20756 17.2182L9.20936 17.2189L8.82658 18.1428ZM8.39622 17.7918L9.20788 17.2076L9.2111 17.2121L8.39622 17.7918ZM8.2026 16.9461L7.2031 16.9778L7.20306 16.9764L8.2026 16.9461ZM7.97066 16.5756L8.45264 15.6994L8.45405 15.7002L7.97066 16.5756ZM7.33436 15.8197L6.34424 15.9599L6.34414 15.9592L7.33436 15.8197ZM7.68535 14.7277L6.86529 14.1554L6.86541 14.1552L7.68535 14.7277ZM7.56493 14.1193L8.12046 13.2878L8.12088 13.288L7.56493 14.1193ZM7.10242 13.3198L8.097 13.2158L8.09704 13.2162L7.10242 13.3198ZM8.30386 12.233L8.20701 11.2377L8.21031 11.2373L8.30386 12.233ZM10.626 12.4169L10.385 13.3875L10.3764 13.3853L10.626 12.4169ZM11.1638 11.7994L10.2696 12.2471L10.2684 12.2448L11.1638 11.7994ZM10.587 10.1049L9.59208 10.2056L9.59194 10.2041L10.587 10.1049ZM11.0016 8.75091L10.2768 8.06197L10.2772 8.06159L11.0016 8.75091ZM11.8049 8.3674L11.6058 9.3474L11.6019 9.34659L11.8049 8.3674ZM12.3009 8.89911L13.2161 8.49608L13.2167 8.49745L12.3009 8.89911ZM12.5301 9.76686L11.5467 9.94832L11.5464 9.94667L12.5301 9.76686ZM12.7415 10.6379L13.6838 10.303L13.6843 10.3045L12.7415 10.6379ZM14.5649 12.7413L14.042 13.5937L14.0416 13.5934L14.5649 12.7413ZM16.5744 13.6318L16.2933 14.5914L16.2928 14.5913L16.5744 13.6318ZM16.7112 13.6513L16.71 12.6513L16.7112 12.6513L16.7112 13.6513ZM18.265 19.1893L18.265 18.1893L18.2782 18.1893L18.2915 18.1896L18.265 19.1893ZM18.8507 19.0378L19.4044 19.8705L19.4042 19.8707L18.8507 19.0378ZM19.1647 18.4184L20.1647 18.4179L20.1647 18.4264L19.1647 18.4184ZM19.1627 13.6584L18.1627 13.6588L18.1626 13.6128L18.1668 13.567L19.1627 13.6584ZM18.9211 12.9993L18.2405 13.7319L18.2396 13.7311L18.9211 12.9993ZM18.278 12.7653L18.2996 13.7651L18.2888 13.7653L18.278 13.7653L18.278 12.7653ZM16.783 12.7653L16.783 13.7653L16.635 13.7653L16.4933 13.7224L16.783 12.7653ZM15.0685 11.997L14.5459 12.8496L14.5448 12.849L15.0685 11.997ZM13.6214 10.3551L12.6789 10.6892L12.6781 10.6872L13.6214 10.3551ZM13.4456 9.61411L14.429 9.43304L14.4293 9.43448L13.4456 9.61411ZM13.1568 8.55591L12.242 8.95984L12.2413 8.95824L13.1568 8.55591ZM12.0005 7.50095L12.202 6.52145L12.2024 6.52155L12.0005 7.50095ZM10.314 8.1555L11.0387 8.84453L11.0384 8.84489L10.314 8.1555ZM9.66266 10.1894L10.6576 10.0891L10.6577 10.09L9.66266 10.1894ZM9.97328 11.388L10.9064 11.0284L11.5162 12.6111L9.83614 12.3785L9.97328 11.388ZM8.20944 11.3516L8.11286 10.3562L8.11334 10.3562L8.20944 11.3516ZM6.17739 13.4082L5.18301 13.514L5.18281 13.5121L6.17739 13.4082ZM6.70354 14.573L7.42032 13.8757L7.93495 14.4047L7.58112 15.0524L6.70354 14.573ZM6.41344 15.938L5.42326 16.0778L5.42326 16.0777L6.41344 15.938ZM7.28783 17.2113L7.84054 16.3779L8.2425 16.6445L8.28411 17.1251L7.28783 17.2113ZM7.62856 18.2903L8.44131 17.7076L8.44807 17.7173L7.62856 18.2903ZM8.21081 18.8324L8.72773 17.9764L9.1218 18.2144L9.19728 18.6685L8.21081 18.8324ZM8.69385 19.8692L9.38744 19.1488L9.389 19.1503L8.69385 19.8692ZM10.5535 20.4743L10.4893 19.4764L10.4898 19.4764L10.5535 20.4743ZM12.5014 20.0843L12.7888 21.0421L12.7887 21.0421L12.5014 20.0843ZM16.2165 19.1893L15.9997 18.2131L16.1068 18.1893L16.2165 18.1893L16.2165 19.1893ZM17.1012 13.4491L16.1012 13.4491L16.1012 13.446L17.1012 13.4491ZM16.6359 13.0058L16.6331 12.0058L16.6359 12.0058L16.6359 13.0058ZM16.1721 13.4491L17.1721 13.446L17.1721 13.4491L16.1721 13.4491ZM16.1721 18.4398L17.1721 18.4398L17.1721 18.4414L16.1721 18.4398ZM16.6366 18.8825L16.638 19.8825L16.6352 19.8825L16.6366 18.8825ZM17.1012 18.4398L16.1012 18.4414L16.1012 18.4398L17.1012 18.4398ZM19.2363 13.6513L19.2363 18.3033L17.2363 18.3033L17.2363 13.6513L19.2363 13.6513ZM18.2363 19.3033L16.1632 19.3033L16.1632 17.3033L18.2363 17.3033L18.2363 19.3033ZM16.2742 19.2971L16.1696 19.3088L15.9474 17.3212L16.0521 17.3095L16.2742 19.2971ZM16.2748 19.2913C14.3446 19.719 13.1048 20.019 12.5099 20.1972L11.9359 18.2814C12.6122 18.0787 13.9231 17.7639 15.8422 17.3387L16.2748 19.2913ZM12.5098 20.1973C11.6235 20.4627 11.2295 20.5454 10.5546 20.5883L10.4278 18.5923C10.8983 18.5624 11.1338 18.5216 11.936 18.2814L12.5098 20.1973ZM10.5563 20.5882C10.2057 20.6111 9.85484 20.5589 9.55116 20.4653C9.26212 20.3763 8.92345 20.2213 8.6594 19.9658L10.0502 18.5285C10.022 18.5013 10.0116 18.4997 10.0354 18.5124C10.0563 18.5235 10.0916 18.5391 10.1399 18.5539C10.2419 18.5854 10.3485 18.5975 10.4261 18.5924L10.5563 20.5882ZM8.66002 19.9664C8.26807 19.5878 8.15015 19.0328 8.10895 18.6045L10.0998 18.413C10.106 18.4779 10.1139 18.5296 10.122 18.5695C10.13 18.6096 10.1374 18.6341 10.1415 18.6458C10.1458 18.658 10.1446 18.6511 10.1333 18.6317C10.1221 18.6125 10.0965 18.5732 10.0495 18.5279L8.66002 19.9664ZM8.10884 18.6033C8.11926 18.7129 8.16021 18.8132 8.22171 18.8942L9.81475 17.685C9.97399 17.8948 10.0744 18.1464 10.0999 18.4141L8.10884 18.6033ZM8.22171 18.8942C8.28286 18.9748 8.361 19.0323 8.44379 19.0666L9.20936 17.2189C9.44533 17.3167 9.65586 17.4757 9.81475 17.685L8.22171 18.8942ZM8.4456 19.0673C8.08673 18.9195 7.79966 18.6783 7.58135 18.3714L9.2111 17.2121C9.21742 17.221 9.22168 17.2259 9.2235 17.2278C9.22525 17.2297 9.22513 17.2294 9.22304 17.2277C9.22091 17.2259 9.21795 17.2238 9.21449 17.2218C9.21106 17.2197 9.20852 17.2186 9.20756 17.2182L8.4456 19.0673ZM7.58458 18.3759C7.29242 17.97 7.21742 17.4295 7.2031 16.9778L9.2021 16.9144C9.20712 17.0729 9.22276 17.1774 9.23682 17.2374C9.24362 17.2664 9.24826 17.2772 9.247 17.2741C9.24604 17.2718 9.23538 17.2458 9.20786 17.2076L7.58458 18.3759ZM7.20306 16.9764C7.20622 17.0809 7.23746 17.1796 7.28961 17.2629L8.98483 16.2017C9.11816 16.4146 9.1944 16.6605 9.20214 16.9158L7.20306 16.9764ZM7.28961 17.2629C7.34152 17.3458 7.41111 17.409 7.48727 17.451L8.45405 15.7002C8.6675 15.8181 8.85175 15.9891 8.98483 16.2017L7.28961 17.2629ZM7.48867 17.4518C6.94118 17.1506 6.44634 16.6809 6.34424 15.9599L8.32448 15.6795C8.32171 15.6599 8.31562 15.6379 8.3062 15.6171C8.29698 15.5967 8.28848 15.586 8.28772 15.5851C8.28757 15.585 8.29693 15.5962 8.32342 15.6169C8.35013 15.6377 8.39146 15.6658 8.45264 15.6994L7.48867 17.4518ZM6.34414 15.9592C6.25061 15.2954 6.49866 14.6808 6.86529 14.1554L8.50541 15.2999C8.29869 15.5962 8.3278 15.703 8.32458 15.6801L6.34414 15.9592ZM6.86541 14.1552C6.77953 14.2782 6.74303 14.4369 6.7742 14.5944L8.73615 14.2061C8.8123 14.5908 8.7257 14.9844 8.50529 15.3001L6.86541 14.1552ZM6.7742 14.5944C6.80515 14.7507 6.89617 14.875 7.00898 14.9505L8.12088 13.288C8.4327 13.4966 8.66023 13.8225 8.73615 14.2061L6.7742 14.5944ZM7.00941 14.9508C6.46831 14.5893 6.17374 14.0566 6.1078 13.4233L8.09704 13.2162C8.1006 13.2504 8.1056 13.2702 8.10838 13.2793C8.11097 13.2878 8.11196 13.2881 8.10938 13.2836C8.1067 13.279 8.10368 13.2754 8.10241 13.2741C8.10149 13.2731 8.10602 13.2781 8.12046 13.2878L7.00941 14.9508ZM6.10784 13.4237C6.0496 12.8666 6.21262 12.2969 6.66271 11.8682C7.08055 11.4702 7.64186 11.2927 8.20701 11.2377L8.40071 13.2283C8.25263 13.2427 8.15541 13.2688 8.09737 13.2911C8.0403 13.313 8.03044 13.3275 8.0421 13.3164C8.05672 13.3025 8.07682 13.2752 8.08872 13.2401C8.09966 13.2078 8.09485 13.1952 8.097 13.2158L6.10784 13.4237ZM8.21031 11.2373C9.10446 11.1533 10.0075 11.2248 10.8756 11.4486L10.3764 13.3853C9.73281 13.2194 9.06202 13.1661 8.39741 13.2286L8.21031 11.2373ZM10.867 11.4464C10.777 11.424 10.6828 11.4264 10.5935 11.4538L11.1794 13.3661C10.9214 13.4451 10.6465 13.4524 10.385 13.3874L10.867 11.4464ZM10.5935 11.4538C10.504 11.4812 10.4175 11.5345 10.348 11.6143L11.8562 12.9278C11.6737 13.1373 11.4376 13.2869 11.1794 13.3661L10.5935 11.4538ZM10.348 11.6143C10.278 11.6946 10.2289 11.7981 10.2138 11.9141L12.1969 12.1734C12.1599 12.4565 12.0392 12.7177 11.8562 12.9278L10.348 11.6143ZM10.2138 11.9141C10.1986 12.0303 10.2192 12.1464 10.2696 12.2471L12.058 11.3517C12.1845 11.6044 12.2339 11.8901 12.1969 12.1734L10.2138 11.9141ZM10.2684 12.2448C9.90365 11.5115 9.65415 10.8188 9.59209 10.2056L11.5819 10.0042C11.6088 10.2698 11.7397 10.7119 12.0591 11.354L10.2684 12.2448ZM9.59194 10.2041C9.50893 9.37185 9.71886 8.64898 10.2768 8.06197L11.7264 9.43984C11.6221 9.54963 11.5488 9.67176 11.5821 10.0056L9.59194 10.2041ZM10.2772 8.06159C10.5117 7.81508 10.792 7.64235 11.0356 7.53435C11.1603 7.47903 11.2962 7.43138 11.4353 7.40064C11.5496 7.37535 11.7658 7.33806 12.0078 7.38822L11.6019 9.34659C11.6522 9.35701 11.6945 9.361 11.7255 9.3625C11.757 9.36403 11.7826 9.36325 11.8012 9.36207C11.8371 9.35978 11.8599 9.35506 11.8671 9.35347C11.8806 9.35047 11.8722 9.35117 11.8463 9.36264C11.8224 9.37324 11.7956 9.38778 11.7708 9.4045C11.7456 9.4215 11.7312 9.43482 11.7261 9.44022L10.2772 8.06159ZM12.0039 7.38741C12.2639 7.44023 12.5382 7.55891 12.7799 7.80667C12.9839 8.01577 13.1162 8.26933 13.2161 8.49608L11.3857 9.30213C11.3546 9.23152 11.334 9.19351 11.3235 9.17615C11.3133 9.15923 11.3204 9.1747 11.3484 9.20341C11.38 9.23579 11.4265 9.27297 11.4861 9.30354C11.5432 9.33286 11.589 9.34398 11.6058 9.34739L12.0039 7.38741ZM13.2167 8.49745C13.3654 8.83658 13.4295 9.12591 13.5138 9.58704L11.5464 9.94667C11.4665 9.5095 11.4348 9.41403 11.3851 9.30076L13.2167 8.49745ZM13.5135 9.58539C13.5902 10.0013 13.622 10.129 13.6838 10.303L11.7993 10.9727C11.6818 10.6423 11.6273 10.3853 11.5467 9.94832L13.5135 9.58539ZM13.6843 10.3045C13.8649 10.8153 14.3561 11.4395 15.0882 11.8891L14.0416 13.5934C12.9934 12.9497 12.1586 11.9892 11.7987 10.9712L13.6843 10.3045ZM15.0878 11.8888C15.6355 12.2248 16.2304 12.4886 16.8559 12.6722L16.2928 14.5913C15.4993 14.3585 14.742 14.023 14.042 13.5937L15.0878 11.8888ZM16.8554 12.6721C16.8077 12.6581 16.7587 12.6512 16.71 12.6513L16.7124 14.6513C16.5709 14.6514 16.4297 14.6314 16.2933 14.5914L16.8554 12.6721ZM16.7112 12.6513L18.2363 12.6513L18.2363 14.6513L16.7112 14.6513L16.7112 12.6513ZM18.2915 18.1896C18.324 18.1905 18.3362 18.1869 18.3332 18.1877C18.3316 18.1881 18.3269 18.1894 18.32 18.1925C18.313 18.1955 18.3051 18.1997 18.2971 18.205L19.4042 19.8707C19.0306 20.119 18.6178 20.199 18.2385 20.1889L18.2915 18.1896ZM18.2969 18.2051C18.2559 18.2324 18.2153 18.2766 18.1891 18.33C18.165 18.379 18.1647 18.4113 18.1647 18.4104L20.1647 18.4264C20.1604 18.9535 19.94 19.5143 19.4044 19.8705L18.2969 18.2051ZM18.1647 18.4188L18.1627 13.6588L20.1627 13.658L20.1647 18.4179L18.1647 18.4188ZM18.1668 13.567C18.1665 13.5709 18.1652 13.5974 18.1792 13.6366C18.194 13.6777 18.2181 13.7111 18.2405 13.7319L19.6018 12.2667C20.0369 12.671 20.2072 13.2187 20.1585 13.7498L18.1668 13.567ZM18.2396 13.7311C18.2554 13.7458 18.2734 13.7559 18.2885 13.7613C18.3024 13.7663 18.3072 13.7649 18.2996 13.7651L18.2564 11.7655C18.7258 11.7554 19.2156 11.907 19.6027 12.2676L18.2396 13.7311ZM18.278 13.7653L16.783 13.7653L16.783 11.7653L18.278 11.7653L18.278 13.7653ZM16.4933 13.7224C15.8076 13.5149 15.1528 13.2216 14.5459 12.8496L15.591 11.1444C16.0508 11.4262 16.549 11.6496 17.0728 11.8082L16.4933 13.7224ZM14.5448 12.849C13.6775 12.3159 12.9728 11.5185 12.6789 10.6892L14.5639 10.021C14.6737 10.3305 15.0254 10.7968 15.5921 11.1451L14.5448 12.849ZM12.6781 10.6872C12.5812 10.4119 12.5331 10.1839 12.4618 9.79373L14.4293 9.43448C14.4976 9.80868 14.5233 9.90569 14.5647 10.0231L12.6781 10.6872ZM12.4621 9.79517C12.3714 9.30239 12.3291 9.15696 12.242 8.95984L14.0716 8.15197C14.2555 8.56845 14.3309 8.90013 14.429 9.43304L12.4621 9.79517ZM12.2413 8.95824C12.1404 8.72858 12.0519 8.62269 11.9962 8.57281C11.9497 8.53111 11.8961 8.50046 11.7986 8.48036L12.2024 6.52155C12.6126 6.6061 12.9969 6.78377 13.3315 7.08381C13.657 7.37567 13.8927 7.74493 14.0723 8.15357L12.2413 8.95824ZM11.7991 8.48046C11.8038 8.48142 11.7785 8.47599 11.7188 8.48369C11.661 8.49115 11.5864 8.50902 11.5013 8.54174C11.326 8.60914 11.1577 8.71937 11.0387 8.84453L9.58928 7.46647C9.93005 7.10804 10.3553 6.83964 10.7835 6.675C11.1994 6.51508 11.7072 6.41971 12.202 6.52145L11.7991 8.48046ZM11.0384 8.84489C10.7462 9.15192 10.6009 9.5263 10.6576 10.0891L8.6677 10.2896C8.55749 9.19621 8.86237 8.23029 9.58962 7.46611L11.0384 8.84489ZM10.6577 10.09C10.6819 10.3319 10.757 10.6406 10.9064 11.0284L9.04015 11.7475C8.8475 11.2475 8.71461 10.7592 8.66761 10.2887L10.6577 10.09ZM9.83614 12.3785C9.32933 12.3083 8.8152 12.2977 8.30554 12.3469L8.11334 10.3562C8.77826 10.292 9.44895 10.3058 10.1104 10.3974L9.83614 12.3785ZM8.30603 12.3469C7.79948 12.396 7.50551 12.5665 7.35615 12.7214C7.21914 12.8634 7.14526 13.0486 7.17198 13.3042L5.18281 13.5121C5.09732 12.694 5.35287 11.9174 5.91665 11.3329C6.46808 10.7612 7.24623 10.4403 8.11286 10.3562L8.30603 12.3469ZM7.17177 13.3023C7.19965 13.5642 7.29068 13.7424 7.42032 13.8757L5.98676 15.2703C5.51567 14.786 5.25366 14.1778 5.18301 13.514L7.17177 13.3023ZM7.58112 15.0524C7.40974 15.3661 7.37663 15.607 7.40362 15.7982L5.42326 16.0777C5.32436 15.3772 5.4924 14.7041 5.82595 14.0935L7.58112 15.0524ZM7.40361 15.7981C7.42799 15.9707 7.52454 16.1684 7.84054 16.3779L6.73513 18.0447C6.04948 17.59 5.54394 16.9322 5.42326 16.0778L7.40361 15.7981ZM8.28411 17.1251C8.3143 17.4738 8.39044 17.6368 8.44125 17.7076L6.81587 18.873C6.48079 18.4057 6.33937 17.8497 6.29156 17.2976L8.28411 17.1251ZM8.44807 17.7173C8.51839 17.8178 8.6128 17.907 8.72773 17.9764L7.69388 19.6884C7.34509 19.4778 7.04279 19.1976 6.80905 18.8634L8.44807 17.7173ZM9.19728 18.6685C9.24895 18.9794 9.3374 19.1006 9.38744 19.1488L8.00025 20.5895C7.54263 20.1489 7.32045 19.5746 7.22434 18.9964L9.19728 18.6685ZM9.389 19.1503C9.56882 19.3242 10.0253 19.5062 10.4893 19.4764L10.6177 21.4723C9.70784 21.5308 8.66043 21.2279 7.99869 20.588L9.389 19.1503ZM10.4898 19.4764C11.0424 19.4411 11.35 19.3857 12.214 19.1265L12.7887 21.0421C11.8328 21.3289 11.3686 21.4243 10.6171 21.4723L10.4898 19.4764ZM12.214 19.1265C12.8551 18.9341 14.1339 18.6275 15.9997 18.2131L16.4334 20.1655C14.5539 20.583 13.3478 20.8744 12.7888 21.0421L12.214 19.1265ZM16.2165 18.1893L18.265 18.1893L18.265 20.1893L16.2165 20.1893L16.2165 18.1893ZM16.1012 13.446C16.1009 13.5268 16.1175 13.6055 16.1486 13.6771L17.9837 12.882C18.0614 13.0612 18.1018 13.2551 18.1012 13.4522L16.1012 13.446ZM16.1486 13.6771C16.1796 13.7486 16.2236 13.8102 16.2756 13.8597L17.6552 12.4118C17.7936 12.5436 17.9062 12.7029 17.9837 12.882L16.1486 13.6771ZM16.2756 13.8597C16.3274 13.9091 16.3862 13.9457 16.4475 13.9699L17.1811 12.1093C17.3554 12.178 17.5169 12.28 17.6552 12.4118L16.2756 13.8597ZM16.4475 13.9699C16.5086 13.994 16.5725 14.0058 16.6359 14.0058L16.6359 12.0058C16.8218 12.0058 17.0069 12.0406 17.1811 12.1093L16.4475 13.9699ZM16.6387 14.0058C16.702 14.0056 16.7658 13.9937 16.8268 13.9695L16.0892 12.1105C16.2629 12.0415 16.4476 12.0063 16.6331 12.0058L16.6387 14.0058ZM16.8268 13.9695C16.8879 13.9452 16.9466 13.9085 16.9982 13.8592L15.6165 12.4132C15.7543 12.2815 15.9154 12.1794 16.0892 12.1105L16.8268 13.9695ZM16.9982 13.8592C17.05 13.8097 17.0939 13.7481 17.1248 13.6767L15.2891 12.883C15.3664 12.7042 15.4785 12.5451 15.6165 12.4132L16.9982 13.8592ZM17.1248 13.6767C17.1558 13.6052 17.1723 13.5266 17.172 13.446L15.1721 13.4522C15.1714 13.2555 15.2117 13.0619 15.2891 12.883L17.1248 13.6767ZM17.1721 13.4491L17.1721 18.4398L15.1721 18.4398L15.1721 13.4491L17.1721 13.4491ZM17.1721 18.4414C17.1722 18.3608 17.1555 18.2822 17.1245 18.2107L15.2899 19.0073C15.2123 18.8285 15.1718 18.635 15.1721 18.4383L17.1721 18.4414ZM17.1245 18.2107C17.0935 18.1394 17.0495 18.078 16.9977 18.0286L15.618 19.4765C15.4799 19.3449 15.3675 19.1859 15.2899 19.0073L17.1245 18.2107ZM16.9977 18.0286C16.9459 17.9793 16.8872 17.9427 16.8261 17.9186L16.0911 19.7786C15.9172 19.7099 15.756 19.608 15.618 19.4765L16.9977 18.0286ZM16.8261 17.9186C16.7651 17.8944 16.7013 17.8826 16.638 17.8825L16.6352 19.8825C16.4497 19.8822 16.265 19.8473 16.0911 19.7786L16.8261 17.9186ZM16.6352 17.8825C16.5719 17.8826 16.5081 17.8944 16.4471 17.9186L17.1821 19.7786C17.0083 19.8473 16.8235 19.8822 16.638 19.8825L16.6352 17.8825ZM16.4471 17.9186C16.386 17.9427 16.3273 17.9793 16.2756 18.0286L17.6552 19.4765C17.5172 19.608 17.356 19.7099 17.1821 19.7786L16.4471 17.9186ZM16.2756 18.0286C16.2237 18.078 16.1797 18.1394 16.1488 18.2107L17.9833 19.0073C17.9057 19.1859 17.7934 19.3449 17.6552 19.4765L16.2756 18.0286ZM16.1488 18.2107C16.1177 18.2822 16.1011 18.3608 16.1012 18.4414L18.1012 18.4383C18.1015 18.635 18.0609 18.8285 17.9833 19.0073L16.1488 18.2107ZM16.1012 18.4398L16.1012 13.4491L18.1012 13.4491L18.1012 18.4398L16.1012 18.4398Z" fill="#4C4C4C" mask="url(#path-1-inside-1_164_10033)"/>
</svg>
