<svg width="20" height="21" viewBox="0 0 20 21" fill="none" xmlns="http://www.w3.org/2000/svg">
<rect width="20" height="20" rx="10" transform="matrix(-1 -8.74228e-08 -8.74228e-08 1 20 0.979492)" fill="#21C3E7"/>
<path d="M15.5696 10.626L15.5696 15.6359L13.4965 15.6359L13.3919 15.6485C11.4672 16.1077 10.1919 16.4388 9.55628 16.6439C8.71198 16.9162 8.39726 16.9827 7.82459 17.0219C7.39628 17.052 6.90983 16.8833 6.68815 16.6523C6.56568 16.5249 6.474 16.2631 6.43773 15.8571C6.43022 15.772 6.40047 15.6905 6.3516 15.6211C6.30273 15.5518 6.23654 15.4972 6.15995 15.463C5.98959 15.3874 5.84796 15.2642 5.7296 15.085C5.62012 14.9212 5.54897 14.616 5.53597 14.1743C5.53368 14.0931 5.51118 14.0139 5.47059 13.944C5.43001 13.8742 5.37268 13.8161 5.30403 13.7753C4.90583 13.5394 4.70878 13.2734 4.66773 12.9612C4.62257 12.6161 4.73205 12.2276 5.01872 11.7852C5.08598 11.6815 5.11103 11.555 5.08855 11.4326C5.06606 11.3102 4.99781 11.2017 4.8983 11.13C4.62394 10.9326 4.47342 10.6582 4.43579 10.269C4.37558 9.64881 4.76215 9.19031 5.63723 9.09861C6.41661 9.01975 7.20352 9.08688 7.95937 9.29671C8.04512 9.31964 8.13547 9.31703 8.21982 9.2892C8.30416 9.26137 8.37898 9.20947 8.43547 9.13961C8.49197 9.06975 8.52778 8.98484 8.53871 8.89486C8.54963 8.80489 8.53522 8.71359 8.49715 8.63171C8.15505 7.89111 7.96485 7.28001 7.92038 6.80681C7.86222 6.17891 8.00385 5.72391 8.335 5.34871C8.58609 5.06451 8.98771 4.90211 9.13824 4.93571C9.33665 4.97911 9.46596 5.09671 9.63427 5.50831C9.73348 5.75191 9.78138 5.95911 9.86348 6.44281C9.94216 6.90201 9.98526 7.10921 10.0749 7.38081C10.3451 8.20401 11.0081 9.05731 11.8983 9.64601C12.5221 10.0581 13.1982 10.3808 13.9077 10.605C13.9521 10.619 13.9982 10.6261 14.0446 10.626L15.5696 10.626ZM15.5984 16.59C15.8194 16.5963 16.0178 16.5459 16.184 16.4269C16.3961 16.275 16.496 16.0356 16.4981 15.7598L16.496 10.6337C16.5193 10.3607 16.4406 10.1101 16.2545 9.92391C16.08 9.74891 15.8522 9.66631 15.6114 9.67191L14.1164 9.67191C13.5117 9.47477 12.9351 9.19655 12.4018 8.84451C11.6848 8.36991 11.1566 7.68951 10.9548 7.07631C10.8857 6.86491 10.8487 6.68991 10.7789 6.27831C10.6845 5.72601 10.6257 5.46911 10.4902 5.13871C10.2097 4.45131 9.84158 4.1153 9.33391 4.0026C8.83446 3.892 8.10716 4.1867 7.64738 4.70751C7.13766 5.28431 6.91256 6.00601 6.99603 6.89781C7.03161 7.28141 7.13561 7.71051 7.30666 8.18861C6.72251 8.10151 6.1301 8.08835 5.54281 8.14941C4.16964 8.29291 3.39856 9.20781 3.51076 10.3642C3.56003 10.8626 3.73655 11.2861 4.03691 11.6186C3.78444 12.1163 3.68386 12.6084 3.74681 13.0886C3.81933 13.6416 4.12038 14.1022 4.62121 14.4599C4.6602 14.945 4.76899 15.3321 4.96193 15.6219C5.11396 15.8561 5.31232 16.0549 5.54418 16.2057C5.61807 16.6845 5.77338 17.059 6.02722 17.3222C6.448 17.7604 7.19992 18.0215 7.88685 17.9739C8.53888 17.9291 8.92477 17.8479 9.83474 17.5539C10.4348 17.36 11.6773 17.038 13.5499 16.59L15.5984 16.59ZM14.4346 10.4083C14.4347 10.3457 14.4228 10.2836 14.3995 10.2257C14.3762 10.1678 14.342 10.1152 14.2988 10.0708C14.2556 10.0265 14.2042 9.99129 14.1477 9.96728C14.0911 9.94327 14.0305 9.93091 13.9693 9.93091C13.9082 9.9311 13.8477 9.94359 13.7914 9.96768C13.735 9.99177 13.6838 10.027 13.6407 10.0713C13.5977 10.1157 13.5635 10.1682 13.5403 10.226C13.5171 10.2839 13.5052 10.3458 13.5054 10.4083L13.5054 15.7829C13.5053 15.8454 13.5173 15.9073 13.5406 15.9651C13.5639 16.0229 13.5981 16.0754 13.6412 16.1197C13.6844 16.164 13.7356 16.1991 13.792 16.2231C13.8484 16.2471 13.9089 16.2595 13.97 16.2596C14.0311 16.2595 14.0916 16.2471 14.148 16.2231C14.2044 16.1991 14.2556 16.164 14.2988 16.1197C14.3419 16.0754 14.3761 16.0229 14.3994 15.9651C14.4227 15.9073 14.4346 15.8454 14.4346 15.7829L14.4346 10.4083Z" fill="white"/>
</svg>
