<?xml version="1.0" encoding="UTF-8"?>
<svg xmlns="http://www.w3.org/2000/svg" version="1.1" viewBox="0 0 250 250">
  <defs>
    <style>
      .cls-1 {
        fill: #fff;
      }

      .cls-2 {
        fill: #4c4c4c;
      }

      .cls-3 {
        display: none;
      }

      .cls-4 {
        fill: #21c3e7;
      }
    </style>
  </defs>
  <!-- Generator: Adobe Illustrator 28.7.3, SVG Export Plug-In . SVG Version: 1.2.0 Build 164)  -->
  <g>
    <g id="Layer_1">
      <g class="cls-3">
        <path class="cls-2" d="M155.6,235.3c-2.9-.2-5.8-.6-8.8-.6-22.9.2-45.6-1.5-68.3-4.4-1.3-.2-2.9.2-4,.8-3.2,1.6-6.6,2.4-10.1,2.5-8.8,0-17.7,0-26.5,0-9.7,0-16.9-5.4-19.4-14.6-.5-1.9-.7-4-.7-6,0-24.1,0-48.2,0-72.4,0-12.2,8.1-20.4,20.4-20.4,8.3,0,16.7,0,25,0,3.8,0,7.4.4,10.9,2.2,1.8-2.9,3.4-5.9,5.4-8.5,1.7-2.4,3.9-4.3,5.8-6.6,3.5-4.2,7.4-8.2,10.4-12.8,10.7-16.4,18.6-34.3,25.5-52.5.5-1.3.3-3,.2-4.4-.4-5.2,0-10.3,2.1-15.2,2.2-5.1,6.6-7.8,12.1-7.5,15.9.8,26.7,11.6,27.9,27.6.7,10.2-1.8,19.8-4.5,29.4-2,6.9-3.6,14-5.2,21-.4,1.5-.2,3.1-.3,4.9,4.7-.9,9-1.8,13.4-2.5,12.8-1.9,25.5-3.1,38.3-.3,5.8,1.3,11.3,3.5,15.6,7.7,7.6,7.3,9.3,16.2,6.1,26.1-.4,1.3-.4,2.3.4,3.5,6.6,9.7,6.7,20.5,0,30.2-1.2,1.7-1.3,3.1-.8,5.1,2.9,10.8.4,20.3-7.3,28.4-1.5,1.5-1.9,2.9-1.9,5.1.5,10.1-3.7,18.1-11.7,24.1-8,5.9-17.2,8.2-26.9,9.5-2.4.3-4.8.6-7.2.9h-15.9ZM84.3,218.7c12.3,1,24.7,2.4,37.1,2.8,17.8.6,35.6.8,53.4.7,7.1,0,14-1.9,20.4-5.4,7.6-4,11-10,9.5-17.9-.9-4.4.3-7.3,3.8-10,6.8-5.5,8.7-13.3,5.2-20.8-1.9-4-1.3-7.1,1.6-10.4,6.1-6.8,6.1-14,0-20.9-2.9-3.2-3.2-6.1-1.2-9.9,4.2-8.1,1.3-15.8-7.3-18.6-4.6-1.5-9.5-2.2-14.3-2.6-12.9-.9-25.6,1.6-38.1,4.4-6.4,1.4-12-2-12.7-8.5-.5-4.5-.7-9.3.3-13.6,1.8-8.6,4.4-17,6.7-25.5,1.7-6.4,3-12.8,2.4-19.5-.7-8.7-5.4-14.1-13.7-15.6-2.4-.4-3,0-3.2,2.3-.2,2.8,0,5.7-.1,8.6,0,2,.3,4.1-.4,5.9-6.2,16.9-13.5,33.3-22.5,49-4.6,8.1-9.6,16-16.6,22.4-3.5,3.2-6.4,6.8-8.3,11.1-1.1,2.6-2,5.3-2.4,8.1-.3,2.3.5,4.7.5,7,0,20.5,0,40.9,0,61.4v15.6ZM30.2,176.7c0,12.3,0,24.5,0,36.8,0,4.8,2.7,7.5,7.5,7.5,8.6,0,17.2,0,25.8,0,5.8,0,8.3-2.5,8.3-8.2,0-24,0-48.1,0-72.1,0-5.5-2.5-8.1-8-8.1-8.5,0-17.1,0-25.6,0-5.5,0-8,2.5-8,8,0,12.1,0,24.1,0,36.2Z"/>
        <path class="cls-1" d="M84.3,218.7v-15.6c0-20.5,0-40.9,0-61.4,0-2.4-.8-4.8-.5-7,.4-2.8,1.2-5.6,2.4-8.1,1.9-4.3,4.8-7.9,8.3-11.1,7-6.4,12-14.3,16.6-22.4,9-15.7,16.2-32.1,22.5-49,.7-1.8.3-3.9.4-5.9,0-2.9,0-5.7.1-8.6.2-2.4.8-2.7,3.2-2.3,8.3,1.5,13,6.9,13.7,15.6.5,6.7-.7,13.1-2.4,19.5-2.3,8.5-4.9,16.9-6.7,25.5-.9,4.4-.8,9.1-.3,13.6.7,6.5,6.3,9.9,12.7,8.5,12.6-2.7,25.2-5.3,38.1-4.4,4.8.3,9.8,1.1,14.3,2.6,8.7,2.9,11.6,10.6,7.3,18.6-2,3.8-1.6,6.7,1.2,9.9,6.1,6.8,6,14,0,20.9-2.9,3.3-3.5,6.3-1.6,10.4,3.5,7.5,1.5,15.4-5.2,20.8-3.4,2.8-4.6,5.6-3.8,10,1.5,7.9-1.9,13.9-9.5,17.9-6.4,3.4-13.3,5.3-20.4,5.4-17.8.1-35.6,0-53.4-.7-12.4-.4-24.7-1.8-37.1-2.8Z"/>
        <path class="cls-1" d="M30.2,176.7c0-12.1,0-24.1,0-36.2,0-5.5,2.5-8,8-8,8.5,0,17.1,0,25.6,0,5.5,0,8,2.5,8,8.1,0,24,0,48.1,0,72.1,0,5.7-2.5,8.2-8.3,8.2-8.6,0-17.2,0-25.8,0-4.8,0-7.5-2.7-7.5-7.5,0-12.3,0-24.5,0-36.8Z"/>
      </g>
      <g>
        <path class="cls-4" d="M83.3,223.4v-16.8c0-14.8,0-29.6,0-44.4,0-8.5.2-16.8-.5-25.2-.6-8.3-.8-18.7,5.4-24.9s12.2-14.8,17-23.3c9.6-16.8,17.5-34.6,24.2-52.7.7-1.9.4-4.2.4-6.4,0-3.1,0-6.2.2-9.2.2-2.6,7.7-3.6,10.3-3.1,8.9,1.6,14,7.4,14.7,16.8.6,7.2-.7,14.1-2.6,21-2.5,9.1-5.3,18.2-7.3,27.5-1,4.7-.8,9.8-.3,14.7.8,7,6.8,10.6,13.7,9.1,13.5-2.9,27.1-5.7,41.1-4.7,5.2.4,10.5,1.1,15.4,2.8,9.3,3.1,12.5,11.4,7.9,20.1-2.1,4.1-1.7,7.2,1.3,10.7,6.5,7.4,6.5,15.1,0,22.5-3.1,3.5-3.7,6.8-1.7,11.1,3.8,8.1,1.6,16.5-5.6,22.4-3.7,3-5,6-4,10.8,1.7,8.5-2,15-10.2,19.3-6.9,3.7-14.4,5.7-22,5.8-19.2.1-38.3,0-57.5-.7-13.3-.5-26.6-2-39.9-3Z"/>
        <path class="cls-4" d="M25,178.1c0-13,0-26,0-38.9,0-5.9,2.7-8.6,8.7-8.6,9.2,0,18.4,0,27.6,0,5.9,0,8.6,2.7,8.6,8.7,0,25.9,0,51.8,0,77.6,0,6.2-2.7,8.9-8.9,8.9-9.3,0-18.5,0-27.8,0-5.1,0-8.1-2.9-8.1-8,0-13.2,0-26.4,0-39.6Z"/>
      </g>
    </g>
  </g>
</svg>