<svg width="24" height="23" viewBox="0 0 24 23" fill="none" xmlns="http://www.w3.org/2000/svg">
<path d="M19.2075 10.6303H17.7063V5.68502C17.7063 4.12416 16.4412 2.85913 14.8804 2.85913H9.4052C7.84434 2.85913 6.57931 4.12416 6.57931 5.68502V10.6303H5.07806C4.68729 10.6303 4.37158 10.946 4.37158 11.3368V19.8145C4.37158 20.2053 4.68729 20.521 5.07806 20.521H19.2075C19.5983 20.521 19.914 20.2053 19.914 19.8145V11.3368C19.914 10.946 19.5983 10.6303 19.2075 10.6303ZM8.16887 5.68502C8.16887 5.00284 8.72301 4.4487 9.4052 4.4487H14.8804C15.5626 4.4487 16.1167 5.00284 16.1167 5.68502V10.6303H8.16887V5.68502ZM18.3244 18.9314H5.96115V12.2199H18.3244V18.9314ZM11.5246 15.8627V17.0327C11.5246 17.1299 11.6041 17.2094 11.7012 17.2094H12.5843C12.6815 17.2094 12.7609 17.1299 12.7609 17.0327V15.8627C12.9432 15.7318 13.0792 15.5465 13.1494 15.3334C13.2197 15.1204 13.2205 14.8905 13.1518 14.677C13.083 14.4634 12.9483 14.2772 12.767 14.145C12.5857 14.0129 12.3671 13.9417 12.1428 13.9417C11.9184 13.9417 11.6999 14.0129 11.5186 14.145C11.3373 14.2772 11.2025 14.4634 11.1338 14.677C11.0651 14.8905 11.0659 15.1204 11.1361 15.3334C11.2064 15.5465 11.3424 15.7318 11.5246 15.8627Z" fill="#8C8C8C"/>
</svg>
