<svg width="24" height="23" viewBox="0 0 24 23" fill="none" xmlns="http://www.w3.org/2000/svg">
<path d="M21.327 3.73999H2.95867C2.5679 3.73999 2.2522 4.0557 2.2522 4.44646V18.5759C2.2522 18.9667 2.5679 19.2824 2.95867 19.2824H21.327C21.7177 19.2824 22.0334 18.9667 22.0334 18.5759V4.44646C22.0334 4.0557 21.7177 3.73999 21.327 3.73999ZM20.4439 6.18615V17.6928H3.84176V6.18615L3.23243 5.71149L3.83955 5.33176L20.4439 5.31447H20.8369L21.0554 5.71149L20.4439 6.18615ZM20.4439 5.31447L12.1428 11.9822L3.83955 5.33176L3.95415 4.78409L3.23022 5.70928L3.83955 6.18395L11.3812 12.0477C11.598 12.2162 11.8649 12.3076 12.1395 12.3076C12.4142 12.3076 12.681 12.2162 12.8979 12.0477L20.4439 6.18615L21.0532 5.71149L20.6205 4.91745L20.4439 5.31447Z" fill="#8C8C8C"/>
</svg>
