<svg width="22" height="21" viewBox="0 0 22 21" fill="none" xmlns="http://www.w3.org/2000/svg">
<path d="M9.24998 7.9795C10.4926 7.9795 11.5 6.97214 11.5 5.7295C11.5 4.48686 10.4926 3.4795 9.24998 3.4795C8.00734 3.4795 6.99998 4.48686 6.99998 5.7295C6.99998 6.97214 8.00734 7.9795 9.24998 7.9795Z" fill="#4C4C4C"/>
<path d="M13 11.9795V10.9795C13 10.1838 12.6839 9.42078 12.1213 8.85817C11.5587 8.29557 10.7956 7.9795 9.99998 7.9795H8.49998C7.70433 7.9795 6.94127 8.29557 6.37866 8.85817C5.81606 9.42078 5.49998 10.1838 5.49998 10.9795V11.9795H13Z" fill="#4C4C4C"/>
<path d="M1.5 11.9795V3.47949C1.50079 3.21452 1.6064 2.96062 1.79377 2.77326C1.98113 2.58589 2.23503 2.48028 2.5 2.47949H16C16.265 2.48028 16.5189 2.58589 16.7062 2.77326C16.8936 2.96062 16.9992 3.21452 17 3.47949V4.47949C17.5127 4.48033 18.0209 4.57436 18.5 4.75699V3.47949C18.5 2.81645 18.2366 2.18057 17.7678 1.71172C17.2989 1.24288 16.663 0.979492 16 0.979492H2.5C1.83696 0.979492 1.20107 1.24288 0.732233 1.71172C0.263392 2.18057 0 2.81645 0 3.47949V13.4795C0 14.1425 0.263392 14.7784 0.732233 15.2472C1.20107 15.7161 1.83696 15.9795 2.5 15.9795H6.5V16.9795H3.835C3.59395 16.9792 3.35521 17.0265 3.13246 17.1186C2.90971 17.2108 2.70732 17.3459 2.53687 17.5164C2.36642 17.6868 2.23127 17.8892 2.13914 18.1119C2.04702 18.3347 1.99974 18.5734 2 18.8145C2.00079 18.9906 2.0711 19.1593 2.19564 19.2838C2.32019 19.4084 2.48887 19.4787 2.665 19.4795H11V16.4795C10.9984 15.2006 11.4461 13.9618 12.265 12.9795H2.5C2.23503 12.9787 1.98113 12.8731 1.79377 12.6857C1.6064 12.4984 1.50079 12.2445 1.5 11.9795ZM9.24999 13.7295C9.39833 13.7295 9.54333 13.7735 9.66667 13.8559C9.79001 13.9383 9.88614 14.0554 9.9429 14.1925C9.99967 14.3295 10.0145 14.4803 9.98558 14.6258C9.95664 14.7713 9.88521 14.9049 9.78032 15.0098C9.67543 15.1147 9.5418 15.1861 9.39631 15.2151C9.25082 15.244 9.10003 15.2292 8.96298 15.1724C8.82594 15.1156 8.7088 15.0195 8.62639 14.8962C8.54398 14.7728 8.49999 14.6278 8.49999 14.4795C8.49999 14.2806 8.57901 14.0898 8.71966 13.9492C8.86032 13.8085 9.05108 13.7295 9.24999 13.7295Z" fill="#4C4C4C"/>
<path d="M17 11.9795C18.7949 11.9795 20.25 10.5244 20.25 8.72949C20.25 6.93456 18.7949 5.47949 17 5.47949C15.205 5.47949 13.75 6.93456 13.75 8.72949C13.75 10.5244 15.205 11.9795 17 11.9795Z" fill="#4C4C4C"/>
<path d="M20.5 20.9795H13.5C13.1022 20.9795 12.7206 20.8215 12.4393 20.5402C12.158 20.2588 12 19.8773 12 19.4795V16.4795C12.0013 15.2864 12.4758 14.1426 13.3195 13.299C14.1631 12.4554 15.3069 11.9808 16.5 11.9795H17.5C18.693 11.9808 19.8369 12.4554 20.6805 13.299C21.5241 14.1426 21.9987 15.2864 22 16.4795V19.4795C22 19.8773 21.8419 20.2588 21.5606 20.5402C21.2793 20.8215 20.8978 20.9795 20.5 20.9795Z" fill="#4C4C4C"/>
</svg>
