<svg width="14" height="13" viewBox="0 0 14 13" fill="none" xmlns="http://www.w3.org/2000/svg">
<path d="M5.95394 4.7332C6.69953 4.7332 7.30394 4.12879 7.30394 3.3832C7.30394 2.63762 6.69953 2.0332 5.95394 2.0332C5.20836 2.0332 4.60394 2.63762 4.60394 3.3832C4.60394 4.12879 5.20836 4.7332 5.95394 4.7332Z" fill="#21C3E7"/>
<path d="M8.20391 7.1334V6.5334C8.20391 6.05601 8.01427 5.59817 7.67671 5.26061C7.33914 4.92304 6.88131 4.7334 6.40392 4.7334H5.50392C5.02653 4.7334 4.56869 4.92304 4.23113 5.26061C3.89356 5.59817 3.70392 6.05601 3.70392 6.5334V7.1334H8.20391Z" fill="#21C3E7"/>
<path d="M1.30393 7.1332V2.0332C1.3044 1.87422 1.36777 1.72188 1.48019 1.60946C1.59261 1.49704 1.74495 1.43368 1.90393 1.4332H10.0039C10.1629 1.43368 10.3152 1.49704 10.4277 1.60946C10.5401 1.72188 10.6034 1.87422 10.6039 2.0332V2.6332C10.9115 2.63371 11.2165 2.69013 11.5039 2.7997V2.0332C11.5039 1.63538 11.3459 1.25385 11.0646 0.972543C10.7833 0.691238 10.4017 0.533203 10.0039 0.533203H1.90393C1.50611 0.533203 1.12457 0.691238 0.84327 0.972543C0.561966 1.25385 0.403931 1.63538 0.403931 2.0332V8.0332C0.403931 8.43102 0.561966 8.81255 0.84327 9.09386C1.12457 9.37516 1.50611 9.5332 1.90393 9.5332H4.30393V10.1332H2.70493C2.5603 10.133 2.41706 10.1614 2.28341 10.2167C2.14976 10.272 2.02832 10.3531 1.92605 10.4553C1.82378 10.5576 1.74269 10.679 1.68742 10.8127C1.63214 10.9463 1.60377 11.0896 1.60393 11.2342C1.6044 11.3399 1.64659 11.4411 1.72132 11.5158C1.79604 11.5905 1.89725 11.6327 2.00293 11.6332H7.00393V9.8332C7.00296 9.06587 7.27161 8.3226 7.76293 7.7332H1.90393C1.74495 7.73272 1.59261 7.66936 1.48019 7.55694C1.36777 7.44452 1.3044 7.29218 1.30393 7.1332ZM5.95393 8.1832C6.04293 8.1832 6.12993 8.20959 6.20393 8.25904C6.27794 8.30848 6.33561 8.37876 6.36967 8.46099C6.40373 8.54322 6.41264 8.6337 6.39528 8.72099C6.37792 8.80828 6.33506 8.88846 6.27212 8.9514C6.20919 9.01433 6.12901 9.05719 6.04172 9.07455C5.95443 9.09191 5.86395 9.083 5.78172 9.04894C5.69949 9.01488 5.62921 8.95721 5.57977 8.8832C5.53032 8.8092 5.50393 8.7222 5.50393 8.6332C5.50393 8.51385 5.55134 8.39939 5.63573 8.315C5.72012 8.23061 5.83458 8.1832 5.95393 8.1832Z" fill="#21C3E7"/>
<path d="M10.6039 7.1334C11.6809 7.1334 12.5539 6.26035 12.5539 5.1834C12.5539 4.10644 11.6809 3.2334 10.6039 3.2334C9.52697 3.2334 8.65393 4.10644 8.65393 5.1834C8.65393 6.26035 9.52697 7.1334 10.6039 7.1334Z" fill="#21C3E7"/>
<path d="M12.7039 12.5333H8.50394C8.26525 12.5333 8.03633 12.4385 7.86755 12.2697C7.69876 12.1009 7.60394 11.872 7.60394 11.6333V9.8333C7.60474 9.11746 7.88946 8.43116 8.39563 7.92499C8.90181 7.41881 9.5881 7.13409 10.3039 7.1333H10.9039C11.6198 7.13409 12.3061 7.41881 12.8123 7.92499C13.3184 8.43116 13.6031 9.11746 13.6039 9.8333V11.6333C13.6039 11.872 13.5091 12.1009 13.3403 12.2697C13.1716 12.4385 12.9426 12.5333 12.7039 12.5333Z" fill="#21C3E7"/>
</svg>
