<svg width="21" height="19" viewBox="0 0 21 19" fill="none" xmlns="http://www.w3.org/2000/svg">
<path fill-rule="evenodd" clip-rule="evenodd" d="M0 7.97949C0 4.1135 3.13401 0.979492 7 0.979492H14C17.866 0.979492 21 4.1135 21 7.97949C21 10.321 19.8504 12.3939 18.0848 13.6647C17.2853 14.4186 16.2377 15.306 15.1629 16.2164L15.1629 16.2164L15.1627 16.2165C14.0572 17.153 12.9228 18.1139 12 18.979V14.9795H7C3.13401 14.9795 0 11.8455 0 7.97949ZM6 8.97949C6.55228 8.97949 7 8.53178 7 7.97949C7 7.42721 6.55228 6.97949 6 6.97949C5.44772 6.97949 5 7.42721 5 7.97949C5 8.53178 5.44772 8.97949 6 8.97949ZM11 7.97949C11 8.53178 10.5523 8.97949 10 8.97949C9.44771 8.97949 9 8.53178 9 7.97949C9 7.42721 9.44771 6.97949 10 6.97949C10.5523 6.97949 11 7.42721 11 7.97949ZM14 8.97949C14.5523 8.97949 15 8.53178 15 7.97949C15 7.42721 14.5523 6.97949 14 6.97949C13.4477 6.97949 13 7.42721 13 7.97949C13 8.53178 13.4477 8.97949 14 8.97949Z" fill="#4E4E4E"/>
</svg>
