<svg width="24" height="23" viewBox="0 0 24 23" fill="none" xmlns="http://www.w3.org/2000/svg">
<g clip-path="url(#clip0_164_10979)">
<path d="M23.4465 11.2971C23.4465 11.2971 19.2077 3.52588 12.1429 3.52588C5.07819 3.52588 0.839355 11.2971 0.839355 11.2971C0.839355 11.2971 5.07819 19.0683 12.1429 19.0683C19.2077 19.0683 23.4465 11.2971 23.4465 11.2971ZM2.49674 11.2971C3.17992 10.2587 3.9657 9.29167 4.84223 8.41043C6.66069 6.58915 9.14748 4.93883 12.1429 4.93883C15.1384 4.93883 17.6237 6.58915 19.445 8.41043C20.3216 9.29167 21.1073 10.2587 21.7905 11.2971C21.7086 11.42 21.6181 11.5557 21.515 11.704C21.0417 12.3822 20.3423 13.2865 19.445 14.1837C17.6237 16.005 15.137 17.6553 12.1429 17.6553C9.14748 17.6553 6.66211 16.005 4.84082 14.1837C3.96429 13.3025 3.17852 12.3354 2.49533 11.2971H2.49674Z" fill="#8C8C8C"/>
<path d="M12.1428 7.76475C11.206 7.76475 10.3075 8.13691 9.64506 8.79936C8.98261 9.46181 8.61046 10.3603 8.61046 11.2971C8.61046 12.234 8.98261 13.1324 9.64506 13.7949C10.3075 14.4573 11.206 14.8295 12.1428 14.8295C13.0797 14.8295 13.9781 14.4573 14.6406 13.7949C15.303 13.1324 15.6752 12.234 15.6752 11.2971C15.6752 10.3603 15.303 9.46181 14.6406 8.79936C13.9781 8.13691 13.0797 7.76475 12.1428 7.76475ZM7.19751 11.2971C7.19751 9.98554 7.71853 8.72768 8.64596 7.80026C9.57338 6.87283 10.8312 6.35181 12.1428 6.35181C13.4544 6.35181 14.7123 6.87283 15.6397 7.80026C16.5671 8.72768 17.0881 9.98554 17.0881 11.2971C17.0881 12.6087 16.5671 13.8666 15.6397 14.794C14.7123 15.7214 13.4544 16.2424 12.1428 16.2424C10.8312 16.2424 9.57338 15.7214 8.64596 14.794C7.71853 13.8666 7.19751 12.6087 7.19751 11.2971Z" fill="#8C8C8C"/>
</g>
<defs>
<clipPath id="clip0_164_10979">
<rect width="22.6071" height="22.6071" fill="white" transform="translate(0.839355 -0.00634766)"/>
</clipPath>
</defs>
</svg>
