<svg width="31" height="31" viewBox="0 0 31 31" fill="none" xmlns="http://www.w3.org/2000/svg">
<path d="M23.4224 5.47266C22.9223 5.47382 22.4274 5.56986 21.9662 5.75525C21.5051 5.94064 21.0868 6.2117 20.7355 6.5528L6.1151 20.5636L6.05778 20.841L5.04628 25.7144L4.75781 27.0152L6.11602 26.7388L11.2012 25.7694L11.4897 25.7136L26.1101 11.7027C26.467 11.3667 26.7504 10.9658 26.9439 10.5237C27.1374 10.0815 27.237 9.60681 27.237 9.12732C27.237 8.64784 27.1374 8.17316 26.9439 7.73098C26.7504 7.2888 26.467 6.88798 26.1101 6.55191C25.7587 6.21087 25.3402 5.93991 24.8789 5.75467C24.4176 5.56943 23.9225 5.47358 23.4224 5.47266ZM23.4224 7.16154C23.8884 7.16154 24.358 7.36534 24.8092 7.79864C25.7089 8.65991 25.7089 9.59474 24.8092 10.4569L24.1454 11.0656L21.3994 8.43485L22.0355 7.79864C22.4876 7.36534 22.9564 7.16154 23.4224 7.16154ZM20.1003 9.68157L22.8445 12.3124L11.6635 23.0269C11.0599 21.8951 10.0989 20.9748 8.91751 20.397L20.1003 9.68157ZM7.73404 21.8378C8.28125 22.0488 8.77831 22.3636 9.19538 22.7633C9.61246 23.163 9.94093 23.6394 10.1611 24.1638L7.12659 24.7451L7.73404 21.8378Z" fill="#6E6E6E"/>
<path d="M7.73404 21.8378C8.28125 22.0488 8.77831 22.3636 9.19538 22.7633C9.61246 23.163 9.94093 23.6394 10.1611 24.1638L7.12659 24.7451L7.73404 21.8378Z" fill="#6E6E6E"/>
<path d="M23.4224 7.16154C23.8884 7.16154 24.358 7.36534 24.8092 7.79864C25.7089 8.65991 25.7089 9.59474 24.8092 10.4569L24.1454 11.0656L21.3994 8.43485L22.0355 7.79864C22.4876 7.36534 22.9564 7.16154 23.4224 7.16154Z" fill="#6E6E6E"/>
</svg>
