<svg width="72" height="72" viewBox="0 0 72 72" fill="none" xmlns="http://www.w3.org/2000/svg">
<g filter="url(#filter0_d_164_10591)">
<circle cx="16.8594" cy="16.8594" r="16.8594" transform="matrix(-1 0 0 1 53.1255 16.8083)" fill="white"/>
</g>
<path d="M41.375 27.1113C41.0625 27.1121 40.7531 27.1747 40.4649 27.2956C40.1767 27.4165 39.9153 27.5933 39.6957 27.8158L30.558 36.9533L30.5221 37.1341L29.8899 40.3125L29.7097 41.1608L30.5585 40.9805L33.7368 40.3483L33.9171 40.3119L43.0549 31.1744C43.2779 30.9552 43.455 30.6938 43.576 30.4055C43.6969 30.1171 43.7592 29.8075 43.7592 29.4948C43.7592 29.1821 43.6969 28.8725 43.576 28.5842C43.455 28.2958 43.2779 28.0344 43.0549 27.8152C42.8352 27.5928 42.5736 27.4161 42.2853 27.2953C41.997 27.1744 41.6876 27.1119 41.375 27.1113ZM41.375 28.2128C41.6662 28.2128 41.9598 28.3457 42.2418 28.6283C42.8041 29.19 42.8041 29.7996 42.2418 30.3619L41.8269 30.7589L40.1106 29.0432L40.5082 28.6283C40.7908 28.3457 41.0838 28.2128 41.375 28.2128ZM39.2987 29.8563L41.0138 31.572L34.0257 38.5598C33.6485 37.8216 33.0478 37.2214 32.3095 36.8446L39.2987 29.8563ZM31.5698 37.7843C31.9118 37.9218 32.2225 38.1272 32.4831 38.3878C32.7438 38.6485 32.9491 38.9592 33.0867 39.3012L31.1901 39.6803L31.5698 37.7843Z" fill="#21C3E7"/>
<path d="M31.5698 37.7843C31.9118 37.9218 32.2225 38.1272 32.4831 38.3878C32.7438 38.6485 32.9491 38.9592 33.0867 39.3012L31.1901 39.6803L31.5698 37.7843Z" fill="#21C3E7"/>
<path d="M41.375 28.2128C41.6662 28.2128 41.9598 28.3457 42.2418 28.6283C42.8041 29.19 42.8041 29.7996 42.2418 30.3619L41.8269 30.7589L40.1106 29.0432L40.5082 28.6283C40.7908 28.3457 41.0838 28.2128 41.375 28.2128Z" fill="#21C3E7"/>
<defs>
<filter id="filter0_d_164_10591" x="0.674045" y="-1.92431" width="73.0574" height="73.0573" filterUnits="userSpaceOnUse" color-interpolation-filters="sRGB">
<feFlood flood-opacity="0" result="BackgroundImageFix"/>
<feColorMatrix in="SourceAlpha" type="matrix" values="0 0 0 0 0 0 0 0 0 0 0 0 0 0 0 0 0 0 127 0" result="hardAlpha"/>
<feOffset dx="0.936633" dy="0.936633"/>
<feGaussianBlur stdDeviation="9.83465"/>
<feComposite in2="hardAlpha" operator="out"/>
<feColorMatrix type="matrix" values="0 0 0 0 0 0 0 0 0 0 0 0 0 0 0 0 0 0 0.07 0"/>
<feBlend mode="normal" in2="BackgroundImageFix" result="effect1_dropShadow_164_10591"/>
<feBlend mode="normal" in="SourceGraphic" in2="effect1_dropShadow_164_10591" result="shape"/>
</filter>
</defs>
</svg>
