<svg width="24" height="25" viewBox="0 0 24 25" fill="none" xmlns="http://www.w3.org/2000/svg">
<path d="M12 1.97949C9.22562 2.01296 6.57431 3.12996 4.61239 5.09188C2.65047 7.0538 1.53347 9.70512 1.5 12.4795C1.53347 15.2539 2.65047 17.9052 4.61239 19.8671C6.57431 21.829 9.22562 22.946 12 22.9795C14.7744 22.946 17.4257 21.829 19.3876 19.8671C21.3495 17.9052 22.4665 15.2539 22.5 12.4795C22.4665 9.70512 21.3495 7.0538 19.3876 5.09188C17.4257 3.12996 14.7744 2.01296 12 1.97949ZM18 13.2295H12.75V18.4795H11.25V13.2295H6V11.7295H11.25V6.47949H12.75V11.7295H18V13.2295Z" fill="#8C8C8C"/>
</svg>
