<svg width="16" height="16" viewBox="0 0 16 16" fill="none" xmlns="http://www.w3.org/2000/svg">
<path d="M7.78442 8.45622C7.1883 8.45622 6.60558 8.27945 6.10993 7.94827C5.61428 7.61709 5.22797 7.14637 4.99984 6.59563C4.77172 6.04489 4.71203 5.43888 4.82833 4.85422C4.94463 4.26956 5.23168 3.73252 5.6532 3.311C6.07471 2.88949 6.61176 2.60243 7.19641 2.48614C7.78107 2.36984 8.38709 2.42953 8.93782 2.65765C9.48856 2.88577 9.95928 3.27209 10.2905 3.76773C10.6216 4.26338 10.7984 4.84611 10.7984 5.44222C10.7984 6.24158 10.4809 7.00821 9.91564 7.57344C9.3504 8.13868 8.58378 8.45622 7.78442 8.45622ZM7.78442 3.43289C7.38701 3.43289 6.99852 3.55074 6.66809 3.77152C6.33766 3.99231 6.08012 4.30613 5.92803 4.67328C5.77595 5.04044 5.73616 5.44445 5.81369 5.83422C5.89122 6.224 6.08259 6.58203 6.3636 6.86304C6.64461 7.14405 7.00264 7.33542 7.39241 7.41295C7.78219 7.49048 8.1862 7.45069 8.55335 7.2986C8.92051 7.14652 9.23433 6.88898 9.45511 6.55855C9.6759 6.22811 9.79375 5.83963 9.79375 5.44222C9.79375 4.90931 9.58205 4.39823 9.20523 4.02141C8.8284 3.64459 8.31732 3.43289 7.78442 3.43289Z" fill="black"/>
<path d="M7.78443 15.4888C6.67047 15.488 5.57054 15.2403 4.56382 14.7634C3.5571 14.2866 2.66863 13.5924 1.96238 12.731L1.70117 12.4095L1.96238 12.093C2.66923 11.2327 3.55795 10.5397 4.56464 10.0639C5.57133 9.58808 6.67096 9.34131 7.78443 9.34131C8.89789 9.34131 9.99752 9.58808 11.0042 10.0639C12.0109 10.5397 12.8996 11.2327 13.6065 12.093L13.8677 12.4095L13.6065 12.731C12.9002 13.5924 12.0118 14.2866 11.005 14.7634C9.99831 15.2403 8.89838 15.488 7.78443 15.4888ZM3.01728 12.4145C3.62824 13.0685 4.36712 13.59 5.18805 13.9465C6.00898 14.3031 6.89444 14.4871 7.78945 14.4871C8.68446 14.4871 9.56992 14.3031 10.3908 13.9465C11.2118 13.59 11.9507 13.0685 12.5616 12.4145C11.9507 11.7604 11.2118 11.239 10.3908 10.8824C9.56992 10.5259 8.68446 10.3419 7.78945 10.3419C6.89444 10.3419 6.00898 10.5259 5.18805 10.8824C4.36712 11.239 3.62824 11.7604 3.01728 12.4145Z" fill="black"/>
<path d="M7.78441 15.4889C6.07283 15.4901 4.41187 14.9085 3.07488 13.8398C1.7379 12.7712 0.80457 11.2792 0.428514 9.60949C0.0524578 7.93973 0.256082 6.1917 1.00587 4.65309C1.75567 3.11448 3.00694 1.87699 4.55376 1.14429C6.10058 0.411584 7.85076 0.227334 9.51625 0.621862C11.1817 1.01639 12.6633 1.96619 13.717 3.31492C14.7708 4.66366 15.334 6.33097 15.3139 8.04243C15.2938 9.75389 14.6916 11.4075 13.6065 12.7311C12.9002 13.5926 12.0117 14.2867 11.005 14.7636C9.9983 15.2405 8.89837 15.4882 7.78441 15.4889ZM7.78441 1.42362C6.49283 1.42362 5.23026 1.80661 4.15635 2.52418C3.08245 3.24174 2.24544 4.26164 1.75117 5.4549C1.25691 6.64816 1.12759 7.96119 1.37956 9.22795C1.63153 10.4947 2.25349 11.6583 3.16677 12.5716C4.08005 13.4849 5.24365 14.1068 6.51041 14.3588C7.77717 14.6108 9.0902 14.4815 10.2835 13.9872C11.4767 13.4929 12.4966 12.6559 13.2142 11.582C13.9317 10.5081 14.3147 9.24552 14.3147 7.95395C14.3147 6.222 13.6267 4.56098 12.4021 3.33631C11.1774 2.11163 9.51636 1.42362 7.78441 1.42362Z" fill="black"/>
<path d="M2.34915 12.4149C2.34915 12.4149 7.40765 18.0661 12.5566 12.9775L13.2196 12.4149C13.2196 12.4149 8.91967 7.95418 4.55439 10.6316L2.34915 12.4149Z" fill="black"/>
<path d="M7.7844 7.954C9.17156 7.954 10.2961 6.82948 10.2961 5.44233C10.2961 4.05517 9.17156 2.93066 7.7844 2.93066C6.39725 2.93066 5.27274 4.05517 5.27274 5.44233C5.27274 6.82948 6.39725 7.954 7.7844 7.954Z" fill="black"/>
</svg>
