<svg width="25" height="25" viewBox="0 0 25 25" fill="none" xmlns="http://www.w3.org/2000/svg">
<path d="M18.6645 11.0706C18.219 10.6251 17.4942 10.6251 17.0485 11.0707C16.9115 11.2079 16.0364 12.0837 15.9027 12.2175V9.19929C15.9027 8.8941 15.7839 8.60718 15.568 8.39139L14.4908 7.31414C14.275 7.09832 13.9881 6.97949 13.6829 6.97949H7.14294C6.51293 6.97949 6.00037 7.49205 6.00037 8.12207V18.8369C6.00037 19.4669 6.51293 19.9795 7.14294 19.9795H14.7601C15.3901 19.9795 15.9027 19.4669 15.9027 18.8369V15.4506L18.6645 12.6865C19.111 12.2399 19.1111 11.5172 18.6645 11.0706ZM13.6176 7.74121C13.6895 7.74121 13.8282 7.72874 13.9522 7.85275L15.0295 8.93C15.1503 9.05088 15.141 9.18335 15.141 9.26465H13.6176V7.74121ZM15.141 18.8369C15.141 19.0469 14.9702 19.2178 14.7601 19.2178H7.14294C6.93294 19.2178 6.76208 19.0469 6.76208 18.8369V8.12207C6.76208 7.91206 6.93294 7.74121 7.14294 7.74121H12.8558V9.64551C12.8558 9.85584 13.0264 10.0264 13.2367 10.0264H15.141V12.9799C15.141 12.9799 14.0174 14.1045 14.0173 14.1045L13.4789 14.6429C13.4372 14.6847 13.4056 14.7357 13.3869 14.7918L12.8483 16.4076C12.8027 16.5445 12.8383 16.6954 12.9403 16.7974C13.0425 16.8995 13.1934 16.935 13.3301 16.8894L14.9459 16.3508C15.002 16.3321 15.053 16.3006 15.0948 16.2587L15.141 16.2125V18.8369ZM14.2868 14.9122L14.8255 15.4508L14.6197 15.6566L13.8118 15.9259L14.0811 15.1179L14.2868 14.9122ZM15.364 14.9121L14.8254 14.3735C15.1122 14.0864 16.386 12.8115 16.6562 12.5411L17.1948 13.0797L15.364 14.9121ZM18.1258 12.148L17.7332 12.5409L17.1946 12.0023L17.5873 11.6092C17.7359 11.4607 17.9775 11.4607 18.1259 11.6092C18.2744 11.7578 18.2752 11.9985 18.1258 12.148Z" fill="#4C4C4C"/>
<path d="M13.2367 10.7881H7.90466C7.69433 10.7881 7.5238 10.9586 7.5238 11.1689C7.5238 11.3793 7.69433 11.5498 7.90466 11.5498H13.2367C13.447 11.5498 13.6176 11.3793 13.6176 11.1689C13.6176 10.9586 13.447 10.7881 13.2367 10.7881Z" fill="#4C4C4C"/>
<path d="M11.7133 12.3115H7.90466C7.69433 12.3115 7.5238 12.482 7.5238 12.6924C7.5238 12.9027 7.69433 13.0732 7.90466 13.0732H11.7133C11.9236 13.0732 12.0941 12.9027 12.0941 12.6924C12.0941 12.482 11.9236 12.3115 11.7133 12.3115Z" fill="#4C4C4C"/>
<path d="M11.7133 13.835H7.90466C7.69433 13.835 7.5238 14.0055 7.5238 14.2158C7.5238 14.4262 7.69433 14.5967 7.90466 14.5967H11.7133C11.9236 14.5967 12.0941 14.4262 12.0941 14.2158C12.0941 14.0055 11.9236 13.835 11.7133 13.835Z" fill="#4C4C4C"/>
<path d="M11.7133 15.3584H7.90466C7.69433 15.3584 7.5238 15.5289 7.5238 15.7393C7.5238 15.9496 7.69433 16.1201 7.90466 16.1201H11.7133C11.9236 16.1201 12.0941 15.9496 12.0941 15.7393C12.0941 15.5289 11.9236 15.3584 11.7133 15.3584Z" fill="#4C4C4C"/>
<path d="M13.2367 17.6943H10.9515C10.7412 17.6943 10.5707 17.8649 10.5707 18.0752C10.5707 18.2855 10.7412 18.4561 10.9515 18.4561H13.2367C13.447 18.4561 13.6176 18.2855 13.6176 18.0752C13.6176 17.8649 13.447 17.6943 13.2367 17.6943Z" fill="#4C4C4C"/>
</svg>
