<svg width="20" height="20" viewBox="0 0 20 20" fill="none" xmlns="http://www.w3.org/2000/svg">
<path d="M19.3142 10.2795C19.3142 12.7991 18.3133 15.2155 16.5317 16.9971C14.7501 18.7787 12.3338 19.7795 9.81421 19.7795C7.29465 19.7795 4.87829 18.7787 3.09669 16.9971C1.3151 15.2155 0.314209 12.7991 0.314209 10.2795C0.314209 7.75998 1.3151 5.34362 3.09669 3.56203C4.87829 1.78043 7.29465 0.779541 9.81421 0.779541C12.3338 0.779541 14.7501 1.78043 16.5317 3.56203C18.3133 5.34362 19.3142 7.75998 19.3142 10.2795ZM6.84071 7.94373H7.8204C7.98427 7.94373 8.1149 7.80954 8.13627 7.64685C8.24315 6.86785 8.77752 6.30023 9.7299 6.30023C10.5445 6.30023 11.2903 6.70754 11.2903 7.68723C11.2903 8.44129 10.8461 8.78804 10.1443 9.31529C9.34515 9.89598 8.71221 10.574 8.75733 11.6749L8.7609 11.9325C8.76214 12.0105 8.79397 12.0847 8.84951 12.1394C8.90505 12.1941 8.97985 12.2247 9.05777 12.2247H10.0208C10.0996 12.2247 10.1751 12.1934 10.2308 12.1377C10.2864 12.082 10.3177 12.0065 10.3177 11.9278V11.8031C10.3177 10.9505 10.6419 10.7023 11.5171 10.0385C12.2403 9.48867 12.9943 8.87829 12.9943 7.59698C12.9943 5.80267 11.4791 4.93579 9.82015 4.93579C8.31558 4.93579 6.66733 5.63642 6.55452 7.65042C6.5529 7.68877 6.55913 7.72704 6.57285 7.76289C6.58656 7.79874 6.60746 7.83141 6.63427 7.85888C6.66107 7.88635 6.69322 7.90805 6.72872 7.92264C6.76422 7.93724 6.80233 7.94441 6.84071 7.94373ZM9.60165 15.5948C10.326 15.5948 10.8236 15.1269 10.8236 14.494C10.8236 13.8385 10.3248 13.3777 9.60165 13.3777C8.90815 13.3777 8.40346 13.8385 8.40346 14.494C8.40346 15.1269 8.90815 15.5948 9.60283 15.5948H9.60165Z" fill="black"/>
</svg>
