<svg width="24" height="25" viewBox="0 0 24 25" fill="none" xmlns="http://www.w3.org/2000/svg">
<path d="M15.3759 9.87342C15.7726 9.87342 16.0971 10.198 16.0971 10.5946V16.3643C16.0971 16.761 15.7726 17.0855 15.3759 17.0855H12.0656L12.2747 16.8764C12.556 16.5951 12.556 16.1408 12.2747 15.8595C11.9934 15.5782 11.5391 15.5782 11.2578 15.8595L9.81539 17.3019C9.53411 17.5832 9.53411 18.0448 9.81539 18.326L11.2578 19.7685C11.5391 20.0497 11.9934 20.0497 12.2747 19.7685C12.556 19.4872 12.556 19.0328 12.2747 18.7515L12.0656 18.5424H15.3759C16.5659 18.5424 17.5396 17.5688 17.5396 16.3788V10.5946C17.5396 9.40463 16.5659 8.43099 15.3759 8.43099C14.9793 8.43099 14.6547 8.75554 14.6547 9.1522C14.6547 9.54887 14.9793 9.87342 15.3759 9.87342Z" fill="#4C4C4C"/>
<path d="M8.16364 18.5279C8.56031 18.5279 8.88485 18.2034 8.88485 17.8067C8.88485 17.41 8.56031 17.0855 8.16364 17.0855C7.76697 17.0855 7.44243 16.7609 7.44243 16.3643V10.5946C7.44243 10.1979 7.76697 9.87336 8.16364 9.87336H11.474L11.2649 10.0825C10.9836 10.3638 10.9836 10.8181 11.2649 11.0994C11.5461 11.3807 12.0005 11.3807 12.2818 11.0994L13.7242 9.65699C14.0055 9.37572 14.0055 8.91415 13.7242 8.63287L12.2818 7.19045C12.0005 6.90917 11.5461 6.90917 11.2649 7.19045C10.9836 7.47172 10.9836 7.92608 11.2649 8.20736L11.474 8.41651H8.16364C6.97364 8.41651 6 9.39015 6 10.5801V16.3498C6 17.5398 6.97364 18.5135 8.16364 18.5135V18.5279Z" fill="#4C4C4C"/>
</svg>
