<svg width="24" height="25" viewBox="0 0 24 25" fill="none" xmlns="http://www.w3.org/2000/svg">
<path d="M20 18.768L15.8242 14.5915C16.4972 13.6667 16.8592 12.5522 16.8581 11.4085C16.8581 8.41502 14.4225 5.97949 11.429 5.97949C8.43553 5.97949 6 8.41502 6 11.4085C6 14.402 8.43553 16.8376 11.429 16.8376C12.5727 16.8387 13.6873 16.4767 14.612 15.8037L18.7885 19.9795L20 18.768ZM11.429 15.1229C10.6943 15.123 9.97606 14.9052 9.36513 14.497C8.7542 14.0889 8.27802 13.5087 7.99682 12.8299C7.71562 12.1511 7.64203 11.4042 7.78535 10.6836C7.92867 9.96296 8.28247 9.30103 8.802 8.7815C9.32154 8.26196 9.98347 7.90817 10.7041 7.76484C11.4247 7.62152 12.1716 7.69511 12.8504 7.97631C13.5292 8.25751 14.1094 8.73369 14.5175 9.34462C14.9257 9.95555 15.1435 10.6738 15.1434 11.4085C15.1423 12.3933 14.7505 13.3374 14.0542 14.0337C13.3579 14.73 12.4138 15.1217 11.429 15.1229Z" fill="#616568"/>
</svg>
