<svg width="12" height="13" viewBox="0 0 12 13" fill="none" xmlns="http://www.w3.org/2000/svg">
<path d="M6.918 7.91621L6.81251 8.02166C6.40076 8.43348 5.89437 9.32373 5.74379 10.0467C5.60316 10.7006 5.07582 11.2349 4.43597 11.3826C4.23908 11.4318 4.02814 11.4459 3.82421 11.4248L2.73207 12.5334L0.123474 9.92478L1.56725 8.47166C1.6024 7.78965 1.88365 7.16384 2.36881 6.67869L3.66957 5.37793V8.1834L3.27582 8.57715L3.76801 9.06934C3.83893 8.99898 6.63001 6.22979 6.45394 6.40447C6.56469 6.29305 6.75343 6.27709 6.88988 6.39744C6.90392 6.40447 6.91095 6.41152 6.91798 6.42559C7.33287 6.83338 7.33287 7.50838 6.918 7.91621Z" fill="#21C3E7"/>
<path d="M5.37256 0.533203C4.82027 0.533203 4.37256 0.978473 4.37256 1.53076C4.37256 3.07749 4.37256 5.98531 4.37256 7.06363C4.37256 7.33013 4.47893 7.37371 4.66807 7.18597L5.95459 5.90895C6.31619 5.54928 6.87137 5.5174 7.26891 5.79867C7.33316 5.84413 7.38825 5.90149 7.44285 5.95818C7.60282 6.12427 7.93281 6.51037 7.93281 7.17066C7.93281 7.64135 7.74981 8.08322 7.41749 8.41554L7.29114 8.53399C6.83985 8.98666 7.30064 9.67383 7.93983 9.67383H10.4038C10.9561 9.67383 11.4038 9.22611 11.4038 8.67383V1.5332C11.4038 0.980918 10.9561 0.533203 10.4038 0.533203H5.37256ZM8.01246 3.71857C7.74966 3.98136 7.32358 3.98136 7.06078 3.71856L6.83351 3.49129C6.69623 3.35401 6.69623 3.13143 6.83351 2.99415L6.85479 2.97287C6.98032 2.84734 7.18383 2.84734 7.30936 2.97287C7.43489 3.0984 7.6384 3.0984 7.76393 2.97287L8.44578 2.29103C8.58305 2.15375 8.80563 2.15375 8.9429 2.29103C9.08018 2.42831 9.08018 2.65088 8.9429 2.78816L8.01246 3.71857ZM10.7007 7.21289C10.7007 7.40705 10.5433 7.56445 10.3491 7.56445H8.94287C8.74871 7.56445 8.59131 7.40705 8.59131 7.21289C8.59131 7.01873 8.74871 6.86133 8.94287 6.86133H10.3491C10.5433 6.86133 10.7007 7.01873 10.7007 7.21289ZM10.7007 5.80664C10.7007 6.0008 10.5433 6.1582 10.3491 6.1582H8.94287C8.74871 6.1582 8.59131 6.0008 8.59131 5.80664C8.59131 5.61248 8.74871 5.45508 8.94287 5.45508H10.3491C10.5433 5.45508 10.7007 5.61248 10.7007 5.80664Z" fill="#21C3E7"/>
</svg>
