<svg width="21" height="23" viewBox="0 0 21 23" fill="none" xmlns="http://www.w3.org/2000/svg">
<path d="M12.4566 14.5146L12.2632 14.708C11.5084 15.463 10.58 17.0951 10.3039 18.4205C10.0461 19.6193 9.0793 20.599 7.90625 20.8697C7.54527 20.96 7.15855 20.9857 6.78468 20.9471L4.78242 22.9795L0 18.197L2.64692 15.533C2.71137 14.2826 3.227 13.1353 4.11645 12.2459L6.50117 9.86113V15.0045L5.7793 15.7264L6.68164 16.6287C6.81166 16.4997 11.9286 11.4229 11.6059 11.7431C11.8089 11.5388 12.1549 11.5096 12.4051 11.7302C12.4308 11.7431 12.4437 11.7561 12.4566 11.7818C13.2172 12.5294 13.2172 13.7669 12.4566 14.5146Z" fill="#4C4C4C"/>
<path d="M8.79024 0.979492C8.23795 0.979492 7.79024 1.42307 7.79024 1.97536C7.79024 4.58799 7.79024 11.5421 7.79024 13.3045C7.79024 13.571 7.89661 13.6084 8.08575 13.4207L10.6906 10.835C11.3779 10.1514 12.4466 10.1137 13.1793 10.692C13.2411 10.7407 13.2948 10.7987 13.3501 10.8547C13.6022 11.11 14.3174 11.832 14.3174 13.1482C14.3174 14.0111 13.9819 14.8212 13.3726 15.4304L13.141 15.6476C12.9611 15.828 12.7575 16.0984 12.5573 16.4151C12.1774 17.016 12.6533 17.7373 13.3642 17.7373H19.6809C20.2331 17.7373 20.6809 17.2896 20.6809 16.7373V1.97949C20.6809 1.42721 20.2331 0.979492 19.6809 0.979492H8.79024ZM14.2981 6.9846C13.9076 7.37511 13.2744 7.37511 12.8839 6.98459L12.302 6.40264C12.0503 6.15096 12.0503 5.74291 12.302 5.49123L12.341 5.45222C12.5711 5.22209 12.9442 5.22209 13.1744 5.45222C13.4045 5.68235 13.7776 5.68235 14.0078 5.45222L15.2578 4.20217C15.5095 3.95049 15.9175 3.95049 16.1692 4.20217C16.4209 4.45385 16.4209 4.8619 16.1692 5.11358L14.2981 6.9846ZM19.3918 13.2256C19.3918 13.5816 19.1032 13.8701 18.7473 13.8701H16.1691C15.8132 13.8701 15.5246 13.5816 15.5246 13.2256C15.5246 12.8696 15.8132 12.5811 16.1691 12.5811H18.7473C19.1032 12.5811 19.3918 12.8696 19.3918 13.2256ZM19.3918 10.6475C19.3918 11.0034 19.1032 11.292 18.7473 11.292H16.1691C15.8132 11.292 15.5246 11.0034 15.5246 10.6475C15.5246 10.2915 15.8132 10.0029 16.1691 10.0029H18.7473C19.1032 10.0029 19.3918 10.2915 19.3918 10.6475Z" fill="#4C4C4C"/>
</svg>
