<svg width="20" height="23" viewBox="0 0 20 23" fill="none" xmlns="http://www.w3.org/2000/svg">
<path fill-rule="evenodd" clip-rule="evenodd" d="M19.185 13.7781C18.4951 13.3672 18.0667 12.6016 18.0667 11.7793C18.0667 10.9574 18.4951 10.1919 19.183 9.78139C19.889 9.36173 20.1827 8.48974 19.881 7.70819C19.5028 6.72095 18.9879 5.79886 18.3543 4.96716C17.8495 4.30498 16.9725 4.13156 16.2665 4.55393C15.5786 4.96716 14.7218 4.9684 14.0319 4.55704C13.344 4.14567 12.9175 3.37889 12.9196 2.55514C12.9196 1.71244 12.3362 1.01307 11.5297 0.892455C10.5159 0.740644 9.48614 0.741488 8.46835 0.895562C7.66378 1.01702 7.0805 1.71599 7.08248 2.557C7.08248 3.37974 6.65603 4.14607 5.96816 4.55704C5.27823 4.96796 4.4234 4.96712 3.73352 4.55433C3.02753 4.13196 2.15056 4.30622 1.6457 4.9684C1.33192 5.38101 1.04225 5.82211 0.786838 6.28025C0.531382 6.73759 0.308115 7.21694 0.119054 7.70419C-0.184687 8.48699 0.109011 9.36022 0.814993 9.78095C1.50492 10.1915 1.93335 10.9574 1.93335 11.7793C1.93335 12.6012 1.50492 13.3665 0.817011 13.7776C0.111028 14.1974 -0.182627 15.0689 0.119054 15.8502C0.497218 16.8381 1.01212 17.7602 1.6457 18.5914C2.15056 19.2536 3.02753 19.427 3.73352 19.0047C4.42143 18.5914 5.27827 18.5906 5.96816 19.0016C6.65603 19.4129 7.08248 20.1797 7.08248 21.0035C7.08046 21.8459 7.66575 22.5453 8.47032 22.6662C8.97518 22.7417 9.48206 22.7793 9.9889 22.7793C10.5038 22.7793 11.0188 22.7406 11.5316 22.663C12.3362 22.5413 12.9195 21.843 12.9195 21.002C12.9175 20.1789 13.3439 19.4125 14.0318 19.0016C14.7217 18.5906 15.5765 18.5915 16.2664 19.0043C16.9724 19.4266 17.8494 19.2528 18.3542 18.5902C18.668 18.1774 18.9577 17.7363 19.2131 17.2787C19.4665 16.8214 19.6938 16.342 19.8809 15.8544C20.1847 15.0716 19.8911 14.1981 19.185 13.7781ZM12.7365 13.4133C12.3161 14.1691 11.6343 14.71 10.8177 14.9359C10.0031 15.1617 9.15021 15.0459 8.42006 14.6091C6.91153 13.7082 6.39259 11.7061 7.26351 10.1453C7.84683 9.0984 8.91286 8.51237 10.005 8.51237C10.5421 8.51237 11.0832 8.65295 11.58 8.94952C13.0885 9.85022 13.6074 11.8529 12.7365 13.4133Z" fill="#8C8C8C"/>
</svg>
