<svg width="24" height="27" viewBox="0 0 24 27" fill="none" xmlns="http://www.w3.org/2000/svg">
<g clip-path="url(#clip0_164_11017)">
<path d="M0.839355 5.87791C0.839355 5.63433 0.938598 5.40073 1.11525 5.2285C1.2919 5.05627 1.5315 4.95951 1.78132 4.95951C5.12592 4.95951 8.38512 3.80476 11.5777 1.46957C11.7408 1.35034 11.9391 1.28589 12.1429 1.28589C12.3467 1.28589 12.5451 1.35034 12.7081 1.46957C15.9007 3.80476 19.1599 4.95951 22.5045 4.95951C22.7544 4.95951 22.9939 5.05627 23.1706 5.2285C23.3473 5.40073 23.4465 5.63433 23.4465 5.87791V12.3067C23.4465 18.4307 19.7314 22.9308 12.4883 25.713C12.2664 25.7983 12.0195 25.7983 11.7975 25.713C4.55446 22.9308 0.839355 18.4294 0.839355 12.3067V5.87791ZM2.72328 6.76937V12.3067C2.72328 14.3563 3.19977 16.1913 4.16351 17.8172C4.35205 18.1352 4.55924 18.4453 4.78517 18.7474C5.32916 19.4749 5.98173 20.1561 6.74403 20.7918C7.03119 21.0312 7.33393 21.2642 7.65229 21.4908C8.90568 22.3827 10.4013 23.1748 12.1429 23.8688C18.4817 21.3426 21.5626 17.5184 21.5626 12.3067V6.76937C21.063 6.74064 20.5657 6.68899 20.0706 6.61446C19.6937 6.55774 19.3182 6.48776 18.9439 6.40456C17.882 6.16847 16.8308 5.82592 15.7906 5.37755C15.4881 5.24715 15.1865 5.10779 14.8859 4.95951C13.9625 4.50404 13.0481 3.96427 12.1429 3.34066C9.10352 5.43463 5.95987 6.58324 2.72328 6.76937Z" fill="#8C8C8C"/>
<path d="M14.8859 4.95951L4.16351 17.8172C4.35205 18.1352 4.55924 18.4453 4.78517 18.7474L15.7906 5.37755C15.4881 5.24715 15.1865 5.10779 14.8859 4.95951Z" fill="#8C8C8C"/>
<path d="M6.74403 20.7918C7.03119 21.0312 7.33393 21.2642 7.65229 21.4908L20.0706 6.61446C19.6937 6.55774 19.3182 6.48776 18.9439 6.40456L6.74403 20.7918Z" fill="#8C8C8C"/>
</g>
<defs>
<clipPath id="clip0_164_11017">
<rect width="22.6071" height="25.433" fill="white" transform="translate(0.839355 0.814941)"/>
</clipPath>
</defs>
</svg>
