<svg width="43" height="43" viewBox="0 0 43 43" fill="none" xmlns="http://www.w3.org/2000/svg">
<path d="M40.8483 22.9844C40.343 22.9844 39.8583 23.1851 39.501 23.5424C39.1437 23.8998 38.943 24.3844 38.943 24.8897V32.9169C38.9415 34.3248 38.3815 35.6745 37.386 36.6701C36.3905 37.6656 35.0407 38.2255 33.6328 38.227H9.95713C8.54925 38.2255 7.19947 37.6656 6.20395 36.6701C5.20843 35.6745 4.64848 34.3248 4.64697 32.9169V24.8897C4.64697 24.3844 4.44623 23.8998 4.08891 23.5424C3.73159 23.1851 3.24696 22.9844 2.74164 22.9844C2.23631 22.9844 1.75168 23.1851 1.39436 23.5424C1.03704 23.8998 0.836304 24.3844 0.836304 24.8897V32.9169C0.838826 35.3351 1.80058 37.6536 3.51052 39.3635C5.22046 41.0734 7.53891 42.0352 9.95713 42.0377H33.6328C36.051 42.0352 38.3695 41.0734 40.0794 39.3635C41.7894 37.6536 42.7511 35.3351 42.7536 32.9169V24.8897C42.7536 24.3844 42.5529 23.8998 42.1956 23.5424C41.8383 23.1851 41.3536 22.9844 40.8483 22.9844Z" fill="#6E6E6E"/>
<path d="M11.7102 14.8046L19.8898 6.62501V30.6055C19.8898 31.1109 20.0905 31.5955 20.4478 31.9528C20.8052 32.3101 21.2898 32.5109 21.7951 32.5109C22.3004 32.5109 22.7851 32.3101 23.1424 31.9528C23.4997 31.5955 23.7005 31.1109 23.7005 30.6055V6.62501L31.88 14.8046C32.2394 15.1517 32.7207 15.3437 33.2203 15.3394C33.7198 15.335 34.1977 15.1347 34.551 14.7814C34.9042 14.4281 35.1046 13.9502 35.109 13.4507C35.1133 12.9511 34.9213 12.4698 34.5742 12.1105L23.1422 0.678461C22.7849 0.321266 22.3003 0.120605 21.7951 0.120605C21.2899 0.120605 20.8054 0.321266 20.448 0.678461L9.01605 12.1105C8.66898 12.4698 8.47693 12.9511 8.48127 13.4507C8.48561 13.9502 8.686 14.4281 9.03926 14.7814C9.39253 15.1347 9.87041 15.335 10.37 15.3394C10.8696 15.3437 11.3508 15.1517 11.7102 14.8046Z" fill="#6E6E6E"/>
</svg>
