<svg width="24" height="24" viewBox="0 0 24 24" fill="none" xmlns="http://www.w3.org/2000/svg">
<path fill-rule="evenodd" clip-rule="evenodd" d="M10.5936 15.2776C10.8726 15.5197 11.3139 15.7816 11.8097 15.8623C12.2986 15.9419 12.8907 15.8571 13.5195 15.2785C15.1075 11.5373 15.0146 9.31734 14.4632 8.07311C13.9233 6.8548 12.8607 6.39266 12.0315 6.33535C10.9702 6.34047 10.3656 6.68798 9.9955 7.1553C9.59483 7.66128 9.37646 8.42468 9.344 9.40216C9.28096 11.3007 9.93028 13.6348 10.5936 15.2776ZM13.3965 17.1634C12.7723 17.4228 12.1454 17.4698 11.5634 17.3751C11.2607 17.3258 10.9759 17.2394 10.7143 17.1304V18.6001L6.22014 19.8841C6.93047 20.3727 7.94694 20.9514 9.19278 21.3373C11.4176 22.0264 14.4342 22.1241 17.8497 19.8441C16.0462 19.3068 14.5753 18.9151 13.9769 18.7655L13.3965 18.6204V17.1634ZM4.58351 19.5547L4.04163 20.0966L3.12068 19.1757L9.18158 17.444V15.874C8.47774 14.1373 7.73871 11.563 7.81216 9.35129C7.84995 8.21334 8.10575 7.07285 8.79393 6.2038C9.50996 5.29958 10.6026 4.80261 12.0554 4.80261H12.0786L12.1017 4.80401C13.3768 4.88129 15.0395 5.59056 15.8645 7.45211C16.666 9.26077 16.5898 11.9689 14.9292 15.8801V17.4283C15.9534 17.6984 17.7536 18.1976 19.7558 18.8233L21.1172 19.2487L20.011 20.1491C15.6777 23.6762 11.6709 23.7093 8.7393 22.8013C7.29322 22.3534 6.12738 21.6836 5.32402 21.1279C4.92133 20.8494 4.60668 20.5974 4.39017 20.4126C4.28183 20.3201 4.1978 20.2442 4.13935 20.1899C4.11012 20.1628 4.08725 20.141 4.07092 20.1253L4.05133 20.1062L4.04523 20.1002L4.04312 20.0981L4.04229 20.0973C4.04229 20.0973 4.04163 20.0966 4.58351 19.5547Z" fill="#8C8C8C"/>
<path d="M2.29172 17.6258C1.32781 15.9127 0.827294 13.9779 0.839576 12.0122C0.851858 10.0466 1.37651 8.11816 2.36175 6.41724C3.34699 4.71631 4.75876 3.30171 6.45771 2.31307C8.15666 1.32442 10.0841 0.795902 12.0496 0.779682C14.0152 0.763462 15.9511 1.2601 17.6661 2.22057C19.3812 3.18105 20.8161 4.57216 21.8293 6.25659C22.8424 7.94102 23.3988 9.86055 23.4436 11.8257C23.4883 13.7909 23.0198 15.7337 22.0843 17.4625L21.234 17.0024C22.0895 15.4215 22.518 13.6448 22.4771 11.8477C22.4362 10.0506 21.9274 8.29525 21.0008 6.75488C20.0743 5.2145 18.7621 3.94237 17.1938 3.06404C15.6254 2.18571 13.8551 1.73154 12.0576 1.74638C10.2601 1.76121 8.49758 2.24453 6.94393 3.14862C5.39029 4.05271 4.09926 5.34633 3.19828 6.90178C2.2973 8.45724 1.81752 10.2208 1.80629 12.0183C1.79505 13.8158 2.25276 15.5852 3.13423 17.1518L2.29172 17.6258Z" fill="#8C8C8C"/>
</svg>
